<?xml version="1.0" encoding="iso-8859-1"?>
<!-- Generator: Adobe Illustrator 16.0.0, SVG Export Plug-In . SVG Version: 6.00 Build 0)  -->
<!DOCTYPE svg PUBLIC "-//W3C//DTD SVG 1.1//EN" "http://www.w3.org/Graphics/SVG/1.1/DTD/svg11.dtd">
<svg version="1.1" id="Capa_1" xmlns="http://www.w3.org/2000/svg" xmlns:xlink="http://www.w3.org/1999/xlink" x="0px" y="0px"
	 width="68.345px" height="68.344px" viewBox="0 0 68.345 68.344" style="enable-background:new 0 0 68.345 68.344;"
	 xml:space="preserve">
<g>
	<path d="M67.174,37.834c-3.443-10.439-19.589-19.933-22.06-21.327c-0.103-0.109-0.209-0.18-0.309-0.18l0,0
		c-1.652,0-2.987,14.108-2.987,31.513c0,2.547,0.027,5.018,0.082,7.386h-5.513V46.28h-2.732v8.946h-5.758V9.375
		c0,0-17.773,5.962-25.105,21.622C-3.25,43.899,2.085,52.57,4.163,55.233h-3.23v3.736h66.611v-3.736H65.15
		C66.633,53.179,70.175,46.964,67.174,37.834z M45.744,55.308h-2.509c-0.031-8.151-0.055-9.938-0.055-11.779
		c0-10.877,0.582-19.691,1.308-19.691c0.718,0,1.307,8.813,1.307,19.691C45.795,45.37,45.774,47.157,45.744,55.308z"/>
</g>
<g>
</g>
<g>
</g>
<g>
</g>
<g>
</g>
<g>
</g>
<g>
</g>
<g>
</g>
<g>
</g>
<g>
</g>
<g>
</g>
<g>
</g>
<g>
</g>
<g>
</g>
<g>
</g>
<g>
</g>
</svg>
