<?xml version="1.0" encoding="iso-8859-1"?>
<!-- Generator: Adobe Illustrator 16.0.0, SVG Export Plug-In . SVG Version: 6.00 Build 0)  -->
<!DOCTYPE svg PUBLIC "-//W3C//DTD SVG 1.1//EN" "http://www.w3.org/Graphics/SVG/1.1/DTD/svg11.dtd">
<svg version="1.1" id="Capa_1" xmlns="http://www.w3.org/2000/svg" xmlns:xlink="http://www.w3.org/1999/xlink" x="0px" y="0px"
	 width="196.112px" height="196.112px" viewBox="0 0 196.112 196.112" style="enable-background:new 0 0 196.112 196.112;"
	 xml:space="preserve">
<g>
	<path d="M195.529,180.619c0.102-0.916,0.135-1.846,0.207-2.598c0.225-2.332,0.514-5.607-1.231-7.488
		c-1.562-1.684-4.055-1.601-6.186-1.57c-1.783,0.025-3.572-0.084-5.359-0.146c-0.013-0.205,0.002-0.396-0.068-0.623
		c-11.723-37.465-22.14-75.708-36.362-112.33c-0.186-0.477-0.592-0.676-0.991-0.692C129.079,37.65,109.637,21.447,88.725,9.732
		c-0.935-0.524-2.28,0.578-1.605,1.56c-7.266,3.518-14.214,10.973-20.433,16.05c-6.447,5.263-13.908,10.04-18.661,16.992
		c-0.881,0.212-1.688,0.758-2.08,1.821c-8.424,22.847-13.181,47.801-18.822,71.473c-3.175,13.324-5.102,26.994-7.564,40.462
		c-0.779,4.26-2.392,8.407-1.783,12.668c-0.676-0.073-1.348-0.125-2.028-0.208c-3.799-0.466-9.465-1.822-13.011,0.234
		c-0.121,0.072-0.161,0.177-0.247,0.265c-0.444-0.179-1.011,0.084-1.146,0.558c-0.409,1.434-2.302,8.989-0.732,11.493
		c0.118,0.36,0.331,0.679,0.765,0.781c26.677,6.31,58.688-0.835,86.147,0.19c35.472,1.324,70.903,0.483,106.396,0.406
		C196.139,184.471,196.67,181.884,195.529,180.619z M51.51,47.689c0.254-0.662,0.199-1.224,0.025-1.724
		c6.054-5.249,12.97-9.514,19.146-14.63c3.881-3.215,9.198-6.389,13.513-10.131c-0.253,1.453-0.459,2.941-0.65,4.572
		c-0.778,6.634,2.651,17.345-4.111,22.004c-7.865,5.418-15.661,10.172-21.186,18.191c-0.328,0.251-0.612,0.593-0.759,1.121
		c-0.025,0.088-0.046,0.176-0.07,0.264c-0.009,0.037-0.024,0.074-0.029,0.11c-9.371,33.738-15.411,68.74-21.215,103.26
		c-0.056,0.004-0.102-0.016-0.159-0.007c-5.068,0.759-10.037,0.752-15.05,0.358C25.38,131.019,37.069,85.273,51.51,47.689z
		 M191.176,179.945c-31.976-0.074-63.955,1.119-95.91-0.119c-29.92-1.157-61.182,4.256-90.811,1.767
		c0.202-1.224,0.009-2.661-0.026-3.647c-0.053-1.549-0.105-3.186-0.578-4.662c0.11-0.043,0.223-0.092,0.29-0.17
		c0.566-0.664,12.414,1.51,13.933,1.565c6.369,0.229,12.618,0.765,18.935-0.347c0.749-0.131,1.129-0.578,1.27-1.105
		c0.238-0.17,0.45-0.404,0.575-0.77c5.799-16.92,8.31-34.701,11.326-52.282c2.994-17.455,8.402-34.44,11.45-51.938
		c0.031-0.18-0.002-0.334-0.007-0.5c4.966-4.404,10.225-8.519,15.732-12.219c3.022-2.031,8.315-3.518,10.058-7.13
		c1.816-3.765,2.067-7.204,2.058-11.383c-0.015-7.346,1.364-14.882,0.599-22.115c-0.006-0.052-0.031-0.098-0.041-0.15
		c6.538,6.895,15.814,12.153,22.935,18.189c10.101,8.561,19.108,19.467,30.552,26.221c0.341,0.2,0.672,0.268,0.994,0.282
		c0.281,14.445,7.68,29.799,12.023,43.286c7.092,22.015,13.492,44.519,21.486,66.212c-0.23,0.023-0.463,0.02-0.693,0.051
		c-0.874,0.113-1.537,1.402-0.511,1.887c2.561,1.207,5.28,1.666,8.034,2.246c1.841,0.387,3.808,0.078,5.675,0.422
		C192.255,173.85,191.472,177.123,191.176,179.945z"/>
	<path d="M150.61,171.759c-4.119-18.801-6.989-37.669-10.342-56.598c-2.474-13.973-4.106-29.833-9.291-43.054
		c-0.752-1.918-3.112-2.359-4.317-0.564c-4.434,6.597-7.539,13.667-10.465,20.94c-0.748-4.302-1.497-8.608-2.205-12.885
		c0.233-0.911,0.025-1.966-0.921-2.681c-4.547-3.432-9.562-6.195-14.19-9.528c-2.453-1.766-4.788-3.248-7.799-2.106
		c-4.497,1.705-10.825,7.243-12.844,12.255c-0.774,0.149-1.458,0.654-1.683,1.688c-3.002,13.792-6.233,27.805-7.716,41.86
		c-0.712,6.745-4.072,19.313-1.571,25.623c0.129,0.325,0.378,0.577,0.66,0.778c-1.093,0.17-1.733,1.754-0.52,2.467
		c4.374,2.572,9.036,4.092,13.915,5.42c5.284,1.439,10.582,3.514,15.89,4.685c0.196,0.044,0.335-0.019,0.496-0.041
		c0.231,6.226-2.791,17.444,5.976,18.425c14.155,1.58,28.58-4.052,42.523-0.93c2.874,0.643,4.621-1.966,4.28-4.16
		C150.654,172.878,150.742,172.361,150.61,171.759z M97.105,156.738c-7.972-5.201-19.443-4.568-27.995-8.965
		c0.233-0.06,0.46-0.184,0.658-0.404c3.625-4.037,2.583-14.106,3.065-19.162c1.533-16.075,5.181-31.884,8.452-47.676
		c0.106-0.513,0.027-0.955-0.119-1.358c3.614-3.004,6.894-6.371,10.871-8.958c2.393-1.556,5.681,2.253,7.432,3.615
		c3.36,2.614,7.268,4.728,10.897,6.976c-0.104,10.636,2.973,20.868,5.185,31.248c2.634,12.362,3.461,24.757,7.03,36.925
		C114.175,150.316,104.314,152.443,97.105,156.738z M116.964,172.283c-3.766,0.399-7.652,0.511-11.433,0.473
		c-4.952-0.051-3.084-10.109-3.967-13.59c2.762-0.44,5.476-1.229,8.208-1.898c5.376-1.318,10.716-2.631,16.139-3.746
		c1.43-0.295,1.906-1.371,1.766-2.438c0.275-0.493,0.402-1.096,0.224-1.811c-4.266-17.002-7.771-34.517-10.873-51.949
		c3.774-6.321,7.137-12.842,10.988-19.102c3.479,12.052,4.447,26.454,6.825,38.436c3.526,17.771,5.812,35.674,9.562,53.422
		C135.319,168.884,125.98,171.33,116.964,172.283z"/>
</g>
<g>
</g>
<g>
</g>
<g>
</g>
<g>
</g>
<g>
</g>
<g>
</g>
<g>
</g>
<g>
</g>
<g>
</g>
<g>
</g>
<g>
</g>
<g>
</g>
<g>
</g>
<g>
</g>
<g>
</g>
</svg>
