<?xml version="1.0" encoding="iso-8859-1"?>
<!-- Generator: Adobe Illustrator 18.1.1, SVG Export Plug-In . SVG Version: 6.00 Build 0)  -->
<svg version="1.1" id="Capa_1" xmlns="http://www.w3.org/2000/svg" xmlns:xlink="http://www.w3.org/1999/xlink" x="0px" y="0px"
	 viewBox="0 0 19.676 19.676" style="enable-background:new 0 0 19.676 19.676;" xml:space="preserve">
<g>
	<path d="M14.002,19.133l-0.068-0.273H13.78v-1.104h0.222v-0.17h-0.199v-0.242h-0.75l-0.188-0.795h-0.103v-0.998h0.151v-0.355h0.17
		v-0.288h-1.8v-0.884h-0.175l-0.169-0.444h0.123v-0.221h-0.331l-0.02-0.203h0.103V12.9h-0.102V6.656l0.082-0.287h0.088V5.4h-0.544
		V4.855h-0.159c-0.02-0.045-0.054-0.088-0.095-0.121V4.461c0.029,0.002,0.06,0.01,0.088,0.018c0.071,0.021,0.114-0.03,0.239-0.047
		c0.123-0.014,0.176,0.012,0.274-0.02c0.102-0.031,0.17-0.191,0.17-0.191s-0.046-0.106-0.073-0.203
		c-0.029-0.102-0.148-0.162-0.2-0.27c-0.053-0.105-0.229-0.529-0.229-0.529s0.127-0.1,0.119-0.145
		c-0.01-0.045-0.077-0.021-0.147-0.088c-0.071-0.064-0.115-0.41-0.115-0.41s0.109,0.064,0.157,0.072
		c0.046,0.012,0.062-0.029,0.058-0.09c-0.006-0.06-0.006-0.06,0.004-0.109c0.003-0.016,0-0.029-0.001-0.045
		c0.126-0.01,0.282-0.035,0.455-0.125c0.394-0.199,0.561-0.568,0.561-0.65c0-0.076-0.146-0.01-0.449,0
		c-0.179,0.006-0.42-0.043-0.59-0.086c0.042-0.104,0.086-0.229,0.075-0.344c-0.016-0.197-0.18-0.391-0.209-0.424l0.008-0.127
		c0.031,0.006,0.062,0,0.086-0.018c0.06-0.044,0.065-0.148,0.012-0.23c-0.022-0.031-0.05-0.058-0.079-0.07L10.3,0.281
		c0,0,0.047-0.039,0.047-0.1S10.296,0,10.296,0s-0.059,0.078-0.068,0.139c-0.008,0.06,0.039,0.132,0.039,0.132l-0.003,0.045
		c-0.035-0.01-0.067-0.004-0.095,0.016c-0.061,0.045-0.065,0.146-0.011,0.23c0.021,0.035,0.053,0.062,0.085,0.076l-0.034,0.51
		c-0.019-0.021-0.058-0.06-0.104-0.064c-0.062-0.006-0.186,0.105-0.186,0.105S9.916,1.113,9.89,1.119
		C9.866,1.123,9.852,1.174,9.852,1.174S9.822,1.11,9.762,1.11c-0.062,0-0.094,0.053-0.114,0.08c-0.02,0.023-0.01,0.035,0.015,0.023
		c0.022-0.008,0.062-0.02,0.062-0.02s0.032,0.041,0.056,0.041c0.023,0,0.042,0.026,0.048,0.053c0.005,0.021,0,0.053,0,0.053
		S9.763,1.35,9.744,1.391c-0.019,0.039-0.03,0.1-0.033,0.121c-0.005,0.019-0.054,0.111-0.039,0.16
		c0.014,0.051,0.014,0.09,0.034,0.111c0.019,0.018,0.051,0.045,0.033,0.061c-0.02,0.014-0.053,0.025-0.101-0.016
		C9.592,1.789,9.544,1.742,9.511,1.723c-0.002,0-0.004,0-0.004,0c-0.046-0.09-0.086-0.178-0.128-0.201
		C9.325,1.49,9.254,1.52,9.14,1.561l0,0c0,0-0.034-0.166-0.073-0.266C9.03,1.193,8.995,1.139,9.005,1.098s0.028-0.064,0.028-0.09
		c0-0.012-0.005-0.033-0.016-0.055c0.013-0.004,0.038-0.02,0.055-0.037c0.023-0.025,0.069-0.074,0.052-0.084
		c-0.012-0.012,0.01-0.09,0.01-0.09C9.112,0.729,9.092,0.613,9.092,0.613C9.067,0.635,9.03,0.555,9.03,0.555L8.967,0.549
		c0,0-0.089-0.008-0.094,0.021C8.867,0.594,8.843,0.58,8.82,0.598C8.796,0.618,8.778,0.61,8.773,0.649
		c-0.006,0.042-0.02,0.06-0.009,0.093C8.772,0.77,8.724,0.76,8.739,0.785c0.014,0.027,0.014,0.068,0.032,0.08
		c0.019,0.01-0.008,0.031,0.01,0.051c0.017,0.018,0.05,0.059,0.069,0.068C8.856,1.02,8.875,1.072,8.885,1.09
		c0.017,0.02,0.039,0.055,0.039,0.109c0,0.053,0,0.211,0.043,0.312c0.012,0.027,0.026,0.055,0.038,0.084
		c-0.106,0.018-0.227,0.034-0.33,0.024c-0.236-0.021-0.36-0.066-0.416-0.033C8.203,1.619,8.487,2.203,8.885,2.258
		C9.04,2.279,9.127,2.279,9.187,2.279c0.025,0.078,0.08,0.205,0.192,0.283C9.409,2.58,9.442,2.59,9.475,2.6
		c-0.018,0.039-0.039,0.093-0.05,0.181C9.41,2.888,9.305,3.135,9.301,3.199C9.296,3.26,9.425,3.33,9.425,3.33
		S9.42,3.455,9.372,3.607C9.325,3.756,9.196,3.986,9.096,4.09C8.995,4.195,8.987,4.336,9.039,4.408
		c0.053,0.07,0.171,0.01,0.171,0.01s0.047,0.051,0.115,0.094c0.064,0.049,0.12,0.008,0.189,0c0.037-0.008,0.062,0,0.093,0.01v0.201
		c-0.05,0.035-0.091,0.08-0.113,0.132h-0.14V5.4h-0.51v0.969h0.073l0.097,0.287V12.9h-0.12v0.256h0.119l-0.009,0.203H8.7v0.221
		h0.091l-0.134,0.443H8.514v0.883H6.593v0.289h0.153v0.354h0.17v0.998h-0.12l-0.189,0.797H5.8v0.242H5.624v0.17h0.153v1.104h-0.07
		l-0.065,0.273H5.557v0.543h8.562v-0.543C14.119,19.133,14.002,19.133,14.002,19.133z M10.267,0.836
		c0.046,0.061,0.178,0.252,0.182,0.369c0.002,0.082-0.039,0.217-0.074,0.33c-0.025-0.008-0.044-0.014-0.065-0.017
		c0.021-0.088,0.043-0.186,0.047-0.258c0.008-0.11-0.061-0.319-0.09-0.408V0.836z"/>
</g>
<g>
</g>
<g>
</g>
<g>
</g>
<g>
</g>
<g>
</g>
<g>
</g>
<g>
</g>
<g>
</g>
<g>
</g>
<g>
</g>
<g>
</g>
<g>
</g>
<g>
</g>
<g>
</g>
<g>
</g>
</svg>
