<?xml version="1.0" encoding="iso-8859-1"?>
<!-- Generator: Adobe Illustrator 19.0.0, SVG Export Plug-In . SVG Version: 6.00 Build 0)  -->
<svg version="1.1" id="Capa_1" xmlns="http://www.w3.org/2000/svg" xmlns:xlink="http://www.w3.org/1999/xlink" x="0px" y="0px"
	 viewBox="0 0 512.002 512.002" style="enable-background:new 0 0 512.002 512.002;" xml:space="preserve">
<g>
	<g>
		<path d="M510.767,488.652l-32.273-58.75c-5.007-9.014-20.246-36.445-52.899-36.445h-5.642l-14.719-58.136
			c21.97-12.604,36.764-30.844,41.034-50.292c0.087-0.294,0.163-0.594,0.223-0.899c0.225-1.134,0.401-2.275,0.554-3.418
			c0.011-0.077,0.018-0.154,0.029-0.232c0.09-0.694,0.174-1.387,0.238-2.082c0.034-0.362,0.054-0.724,0.081-1.086
			c0.032-0.449,0.072-0.899,0.093-1.348c0.04-0.838,0.063-1.677,0.063-2.517c0-0.699-0.022-1.413-0.064-2.137
			c-0.001-0.02-0.002-0.041-0.003-0.061c-0.042-0.69-0.105-1.392-0.19-2.103c-0.003-0.024-0.006-0.048-0.009-0.073
			c-1.909-15.746-14.878-36.343-61.403-52.71c-28.468-10.015-64.609-16.691-103.722-19.294v-33.355V90.472V47.45V18.536
			c0-5.523-4.477-10-10-10c-5.522,0-10,4.477-10,10V37.45h-12.31V18.536c0-5.523-4.478-10-10-10c-5.523,0-10,4.477-10,10V47.45
			v43.022v73.241v33.355c-39.113,2.603-75.253,9.279-103.722,19.294c-46.522,16.367-59.493,36.963-61.403,52.708
			c-0.003,0.026-0.006,0.051-0.009,0.077c-0.085,0.71-0.148,1.411-0.19,2.101c-0.001,0.021-0.002,0.042-0.003,0.062
			c-0.043,0.724-0.064,1.437-0.064,2.136c0,0.84,0.023,1.68,0.063,2.519c0.021,0.436,0.059,0.871,0.09,1.307
			c0.027,0.377,0.049,0.754,0.084,1.131c0.062,0.674,0.144,1.348,0.231,2.022c0.013,0.1,0.023,0.2,0.037,0.3
			c0.153,1.137,0.329,2.274,0.553,3.404c0.06,0.304,0.135,0.602,0.221,0.894c4.269,19.448,19.064,37.689,41.035,50.297
			l-14.72,58.137h-5.642c-32.654,0-47.892,27.432-52.922,36.487L1.236,488.652c-1.702,3.098-1.642,6.864,0.158,9.906
			s5.071,4.908,13.107,4.908h487.502c3.535,0,6.807-1.866,8.606-4.908C512.409,495.516,512.469,491.749,510.767,488.652z
			 M408.614,263.615c4.452,0.776,8.752,1.606,12.854,2.501c0.122,0.027,0.25,0.053,0.372,0.079c1.519,0.334,3.012,0.676,4.477,1.027
			c0.647,1.655,1.046,3.311,1.179,4.962h-18.882V263.615z M249.847,57.45h12.31v23.022h-12.31V57.45z M249.847,100.472h12.31v16.747
			h-12.31V100.472z M249.847,137.219h12.31v16.323c-2.055-0.02-4.104-0.028-6.155-0.028c-2.051,0-4.101,0.009-6.155,0.028V137.219z
			 M249.847,173.552c4.107-0.039,8.203-0.039,12.31,0v22.489c-1.926-0.123-3.868-0.22-5.799-0.289
			c-0.119-0.004-0.237-0.006-0.356-0.006c-0.119,0-0.237,0.002-0.356,0.006c-1.931,0.069-3.873,0.166-5.799,0.289V173.552z
			 M132.763,235.229c28.978-10.195,66.678-16.728,107.484-18.73c0.031-0.001,0.063,0.002,0.094,0
			c2.85-0.142,5.754-0.262,8.633-0.357c0.007,0,0.014-0.001,0.021-0.001c2.328-0.076,4.662-0.142,7.007-0.189
			c2.342,0.047,4.674,0.113,7,0.189c0.009,0,0.017,0.001,0.025,0.001c2.94,0.099,5.846,0.219,8.636,0.357
			c0.07,0.003,0.14,0.003,0.209,0.005c40.761,2.009,78.418,8.539,107.369,18.725c5.305,1.866,10.21,3.828,14.71,5.863
			c-20.681-2.766-45.297-4.798-74.78-6.181c-0.609-0.029-1.215-0.058-1.829-0.086c-0.895-0.041-1.794-0.081-2.698-0.121
			c-0.378-0.017-0.749-0.034-1.128-0.05c-0.018-0.001-0.035,0.001-0.053,0c-8.47-0.366-17.316-0.682-26.588-0.948
			c-0.015-0.001-0.03-0.003-0.045-0.003c-9.584-0.274-19.901-0.502-30.666-0.676c-0.108-0.002-0.215-0.002-0.322,0
			c-9.957,0.16-19.57,0.368-28.573,0.618c-0.047,0.001-0.093,0.009-0.14,0.011c-9.185,0.257-17.975,0.563-26.372,0.919
			c-0.057,0.001-0.114-0.004-0.171-0.002c-13.068,0.556-25.092,1.231-36.301,2.037c-0.824,0.059-1.642,0.119-2.457,0.179
			c-0.279,0.021-0.555,0.042-0.833,0.063c-16.239,1.214-30.664,2.705-43.499,4.493C122.144,239.219,127.238,237.173,132.763,235.229
			z M362.078,257.788v8.909H323.08v-11.572C336.129,255.792,349.284,256.659,362.078,257.788z M237.545,253.389
			c5.818-0.135,11.839-0.253,17.993-0.354c0.153-0.002,0.311-0.005,0.464-0.008c7.072,0.115,13.947,0.253,20.542,0.412v10.008
			h-38.998L237.545,253.389L237.545,253.389z M191.009,255.043v11.653h-38.998v-9.016
			C164.801,256.556,177.959,255.701,191.009,255.043z M84.507,272.185c0.12-1.478,0.461-2.961,0.993-4.443
			c6.148-1.571,12.858-2.968,19.975-4.219v8.662H84.507z M106.913,483.466h-46v-9.5c0-1.084,0.915-1.999,1.998-1.999h38.253
			c3.116,0,5.749,2.633,5.749,5.749V483.466z M155.913,483.466h-29l0.001-16.499h20.75c4.549,0,8.249,3.7,8.249,8.249V483.466z
			 M196.09,483.466h-20.177v-8.25v-25.249c0-1.084,0.916-2,2.001-2h8.087c5.563,0,10.089,4.525,10.089,10.088V483.466z
			 M208.217,437.788c-5.506-6.03-13.427-9.82-22.217-9.82h-8.087c-11.543,0-21.031,8.937-21.925,20.254
			c-2.633-0.814-5.428-1.254-8.325-1.254h-20.75c-6.162,0-11.679,2.805-15.351,7.202c-3.183-1.411-6.699-2.202-10.399-2.202H62.91
			c-12.13,0-21.998,9.869-21.998,21.999v9.5H26.904l24.09-43.853c10.049-18.09,20.971-26.157,35.415-26.157h127.215L208.217,437.788
			z M112.683,393.457l14.937-59h3.546v59H112.683z M218.885,481.982l2.113-9.509h70.007l2.113,9.509H218.885z M277.891,413.456
			l2.114,9.509h-48.006l2.113-9.509H277.891z M236.09,393.457v-14.493h39.824v14.493H236.09z M284.45,442.965l2.112,9.508h-61.12
			l2.113-9.508H284.45z M285.912,358.966h-59.824c-5.522,0-10,4.478-10,10v24.493h-64.924V348.54
			c2.556,0.979,5.196,1.651,7.825,2.031c0.08,0.012,0.16,0.026,0.24,0.037c0.5,0.069,0.998,0.122,1.496,0.169
			c0.238,0.023,0.477,0.049,0.714,0.067c0.382,0.028,0.762,0.044,1.142,0.059c0.224,0.009,0.45,0.03,0.673,0.035
			c0.046,0.001,0.092,0.001,0.138,0.002l0.506,0.005h59.186c5.523,0,10-4.478,10-10c0-5.522-4.477-10-10-10h-59.182h-0.007
			c-0.19,0-0.391-0.012-0.591-0.022c-0.128-0.006-0.255-0.012-0.385-0.022c-0.196-0.016-0.397-0.038-0.6-0.064
			c-0.093-0.011-0.185-0.021-0.279-0.034c-0.266-0.038-0.535-0.084-0.809-0.138c-0.033-0.007-0.066-0.012-0.1-0.018
			c-3.838-0.778-8.276-3.105-9.83-7.134c-0.019-0.051-0.046-0.097-0.064-0.148c-0.107-0.294-0.191-0.602-0.266-0.914
			c-0.012-0.051-0.032-0.098-0.043-0.149c-0.032-0.145-0.075-0.284-0.113-0.425c-0.063-0.236-0.133-0.468-0.213-0.697
			c-0.044-0.128-0.089-0.256-0.138-0.381c-0.019-0.049-0.034-0.101-0.054-0.149c-0.003-0.008-0.008-0.016-0.011-0.024
			c-0.05-0.119-0.108-0.234-0.162-0.351c-0.076-0.164-0.151-0.328-0.235-0.487c-0.058-0.109-0.121-0.215-0.183-0.321
			c-0.093-0.161-0.187-0.32-0.288-0.474c-0.065-0.099-0.133-0.196-0.202-0.293c-0.109-0.155-0.222-0.306-0.34-0.454
			c-0.071-0.09-0.143-0.178-0.217-0.265c-0.126-0.148-0.258-0.292-0.393-0.432c-0.075-0.079-0.149-0.159-0.227-0.235
			c-0.148-0.144-0.302-0.281-0.458-0.416c-0.073-0.064-0.144-0.13-0.219-0.191c-0.213-0.174-0.433-0.338-0.66-0.494
			c-0.058-0.04-0.117-0.077-0.176-0.116c-0.21-0.138-0.423-0.269-0.643-0.391c-0.11-0.061-0.225-0.114-0.337-0.171
			c-0.156-0.079-0.312-0.157-0.473-0.228c-0.127-0.056-0.256-0.105-0.385-0.156c-0.155-0.061-0.311-0.119-0.469-0.172
			c-0.133-0.044-0.266-0.085-0.401-0.124c-0.166-0.048-0.335-0.09-0.504-0.13c-0.13-0.03-0.259-0.061-0.391-0.086
			c-0.194-0.037-0.391-0.064-0.588-0.09c-0.112-0.014-0.222-0.033-0.334-0.044c-0.026-0.003-0.052-0.008-0.078-0.01
			c-0.288-0.025-0.579-0.038-0.872-0.038h-21.33c-0.279,0-0.555,0.013-0.829,0.035c-0.09,0.007-0.178,0.022-0.268,0.032
			c-0.182,0.02-0.365,0.039-0.545,0.069c-0.105,0.018-0.209,0.042-0.313,0.063c-0.161,0.032-0.323,0.063-0.481,0.103
			c-0.109,0.027-0.215,0.061-0.323,0.092c-0.151,0.043-0.301,0.086-0.449,0.136c-0.108,0.037-0.214,0.079-0.32,0.119
			c-0.144,0.054-0.287,0.109-0.428,0.169c-0.105,0.045-0.207,0.095-0.31,0.144c-0.137,0.065-0.274,0.13-0.408,0.201
			c-0.102,0.054-0.201,0.111-0.3,0.169c-0.13,0.075-0.26,0.151-0.386,0.231c-0.097,0.062-0.193,0.127-0.288,0.192
			c-0.071,0.048-0.144,0.092-0.214,0.142c-10.991-6.793-19.372-15.182-24.346-24.169h25.849c5.522,0,10-4.478,10-10v-21.674
			c2.155-0.277,4.337-0.541,6.536-0.798v16.983c0,5.522,4.478,10,10,10h58.998c5.522,0,10-4.478,10-10v-22.522
			c2.189-0.081,4.37-0.158,6.536-0.229v19.502c0,5.522,4.478,10,10,10h58.998c5.522,0,10-4.478,10-10V254.01
			c2.168,0.074,4.346,0.151,6.537,0.234v22.453c0,5.522,4.478,10,10,10h58.998c5.523,0,10-4.478,10-10v-16.874
			c2.201,0.257,4.378,0.525,6.536,0.801v21.561c0,5.522,4.478,10,10,10h23.764c-4.974,8.988-13.355,17.377-24.348,24.17
			c-0.069-0.05-0.143-0.094-0.214-0.142c-0.095-0.065-0.19-0.13-0.287-0.191c-0.127-0.081-0.257-0.158-0.388-0.233
			c-0.099-0.057-0.197-0.114-0.298-0.167c-0.135-0.072-0.274-0.138-0.413-0.203c-0.101-0.048-0.202-0.097-0.305-0.142
			c-0.143-0.061-0.288-0.117-0.434-0.172c-0.104-0.039-0.208-0.081-0.314-0.117c-0.151-0.051-0.304-0.094-0.458-0.138
			c-0.105-0.03-0.208-0.063-0.314-0.09c-0.162-0.04-0.326-0.072-0.49-0.105c-0.102-0.02-0.202-0.044-0.305-0.062
			c-0.182-0.03-0.367-0.05-0.552-0.07c-0.087-0.01-0.174-0.024-0.262-0.031c-0.274-0.023-0.551-0.035-0.83-0.035h-21.33
			c-0.293,0-0.584,0.013-0.872,0.038c-0.026,0.002-0.052,0.008-0.078,0.01c-0.112,0.011-0.223,0.029-0.334,0.044
			c-0.198,0.026-0.394,0.053-0.588,0.09c-0.132,0.025-0.261,0.055-0.391,0.086c-0.169,0.039-0.338,0.081-0.504,0.13
			c-0.135,0.039-0.269,0.08-0.402,0.125c-0.158,0.053-0.314,0.111-0.469,0.172c-0.129,0.051-0.259,0.101-0.385,0.156
			c-0.16,0.071-0.317,0.149-0.473,0.228c-0.113,0.057-0.227,0.11-0.337,0.171c-0.22,0.122-0.434,0.253-0.644,0.391
			c-0.059,0.039-0.118,0.076-0.176,0.116c-0.227,0.156-0.447,0.32-0.661,0.494c-0.075,0.062-0.146,0.128-0.219,0.191
			c-0.156,0.135-0.31,0.272-0.457,0.416c-0.078,0.076-0.152,0.156-0.228,0.235c-0.135,0.14-0.266,0.283-0.393,0.432
			c-0.074,0.087-0.146,0.176-0.217,0.265c-0.118,0.148-0.23,0.299-0.34,0.454c-0.069,0.097-0.137,0.194-0.202,0.294
			c-0.101,0.154-0.195,0.313-0.287,0.473c-0.062,0.107-0.125,0.213-0.184,0.322c-0.084,0.159-0.159,0.323-0.235,0.487
			c-0.054,0.117-0.112,0.231-0.162,0.351c-0.003,0.008-0.008,0.016-0.011,0.024c-0.02,0.048-0.035,0.1-0.054,0.149
			c-0.049,0.125-0.094,0.253-0.138,0.381c-0.079,0.228-0.15,0.461-0.213,0.697c-0.038,0.142-0.081,0.281-0.113,0.425
			c-0.011,0.051-0.031,0.098-0.043,0.149c-0.075,0.313-0.159,0.62-0.266,0.914c-0.019,0.051-0.045,0.098-0.064,0.148
			c-1.554,4.029-5.992,6.356-9.83,7.134c-0.033,0.007-0.066,0.012-0.1,0.018c-0.273,0.054-0.543,0.1-0.809,0.138
			c-0.094,0.013-0.186,0.023-0.279,0.034c-0.203,0.025-0.404,0.048-0.6,0.064c-0.131,0.01-0.258,0.016-0.385,0.022
			c-0.156,0.008-0.312,0.015-0.463,0.017l-46.183,0.005c-5.522,0.001-9.999,4.479-9.999,10.001
			c0.001,5.522,4.479,9.999,10.001,9.999l45.955-0.005c0.032,0,0.063,0.005,0.096,0.005l0.506-0.005
			c0.046-0.001,0.092-0.001,0.138-0.002c0.223-0.005,0.449-0.025,0.673-0.035c0.38-0.015,0.76-0.031,1.142-0.059
			c0.238-0.018,0.476-0.044,0.714-0.067c0.498-0.047,0.996-0.1,1.496-0.169c0.08-0.011,0.16-0.025,0.241-0.037
			c2.629-0.381,5.269-1.052,7.826-2.031v44.917h-64.924v-24.493C295.912,363.444,291.435,358.966,285.912,358.966z M380.839,334.457
			h3.545l14.938,59h-18.483V334.457z M336.091,475.216v8.25h-20.177v-25.411c0-5.563,4.526-10.088,10.089-10.088h8.088
			c1.084,0,2,0.916,2,2V475.216z M385.091,477.716v5.75h-29v-8.25c0-4.549,3.7-8.249,8.249-8.249l20.751,0.001V477.716z
			 M451.09,483.466h-46v-5.75c0-3.116,2.633-5.749,5.749-5.749h38.253c1.083,0,1.998,0.915,1.998,1.999V483.466z M471.091,483.466
			v-9.5c0-12.13-9.868-21.999-21.998-21.999H410.84c-3.7,0-7.216,0.79-10.399,2.202c-3.672-4.396-9.189-7.202-15.351-7.202h-20.75
			c-2.897,0-5.692,0.44-8.325,1.254c-0.894-11.317-10.382-20.254-21.924-20.254h-8.088c-8.79,0-16.711,3.79-22.217,9.82
			l-5.406-24.331h127.215c14.443,0,25.366,8.067,35.394,26.116l24.111,43.894H471.091z"/>
	</g>
</g>
<g>
	<g>
		<path d="M272.969,330.944h-0.475c-5.522,0-10,4.478-10,10c0,5.522,4.478,10,10,10h0.475c5.522,0,10-4.478,10-10
			C282.969,335.422,278.491,330.944,272.969,330.944z"/>
	</g>
</g>
<g>
</g>
<g>
</g>
<g>
</g>
<g>
</g>
<g>
</g>
<g>
</g>
<g>
</g>
<g>
</g>
<g>
</g>
<g>
</g>
<g>
</g>
<g>
</g>
<g>
</g>
<g>
</g>
<g>
</g>
</svg>
