<?xml version="1.0" encoding="iso-8859-1"?>
<!-- Generator: Adobe Illustrator 16.0.0, SVG Export Plug-In . SVG Version: 6.00 Build 0)  -->
<!DOCTYPE svg PUBLIC "-//W3C//DTD SVG 1.1//EN" "http://www.w3.org/Graphics/SVG/1.1/DTD/svg11.dtd">
<svg version="1.1" id="Capa_1" xmlns="http://www.w3.org/2000/svg" xmlns:xlink="http://www.w3.org/1999/xlink" x="0px" y="0px"
	 width="70.1px" height="70.1px" viewBox="0 0 70.1 70.1" style="enable-background:new 0 0 70.1 70.1;" xml:space="preserve">
<g>
	<path d="M65.993,64.573h-5.086l-8.22-3.878h-1.643L48.054,5.383l-5.376-0.595l-0.749-2.096l-2.095-0.602
		c0,0-1.198-0.741-1.643-0.438c-0.445,0.298-0.896,2.084-0.603,2.68c0.301,0.597,0.452,5.981,0.452,5.981s-0.746,1.648-0.452,2.1
		c0.301,0.441,0.157,4.026,0.157,4.026s-0.451,2.691-0.157,3.136c0.301,0.458-0.144,27.959-0.144,27.959s-1.944,1.639-1.944,2.241
		c0,0.596-0.308,1.499-0.896,1.649c-0.604,0.144-3.143,1.201-3.143,1.201L30.87,9.566c0,0,0.746-0.896,0.592-1.492
		c-0.147-0.601-1.344-3.287-1.189-3.888c0.14-0.602,0-1.8-0.301-2.541C29.67,0.896,28.62,0,28.62,0s-1.045,1.047-1.045,1.492
		c0,0.453-1.051,0.898-1.051,0.898l-0.886,2.397l-4.938,0.445l-2.394,55.449l-9.562,3.881H4.106V70.1h61.887V64.573z M29.068,59.936
		h-0.89V18.237h0.89V59.936z M42.377,59.936h-0.903V6.427h0.903V59.936z"/>
</g>
<g>
</g>
<g>
</g>
<g>
</g>
<g>
</g>
<g>
</g>
<g>
</g>
<g>
</g>
<g>
</g>
<g>
</g>
<g>
</g>
<g>
</g>
<g>
</g>
<g>
</g>
<g>
</g>
<g>
</g>
</svg>
