<?xml version="1.0" encoding="iso-8859-1"?>
<!-- Generator: Adobe Illustrator 18.1.1, SVG Export Plug-In . SVG Version: 6.00 Build 0)  -->
<svg version="1.1" id="Capa_1" xmlns="http://www.w3.org/2000/svg" xmlns:xlink="http://www.w3.org/1999/xlink" x="0px" y="0px"
	 viewBox="0 0 19.502 19.502" style="enable-background:new 0 0 19.502 19.502;" xml:space="preserve">
<g>
	<path d="M18.188,13.917c-0.164-0.63-0.56-2.157-0.541-2.397c0.023-0.305-0.164-0.765-0.282-0.765s-0.662-2.084-0.826-2.618
		c-0.166-0.535-0.826-2.441-1.086-2.796c-0.261-0.357-0.474-1.068-0.946-1.398c-0.472-0.331-1.511-0.434-1.747-0.23
		c-0.235,0.204-0.661,0.789-0.919,0.942c-0.261,0.151-0.688,0.583-0.851,0.99c-0.166,0.406-0.71,2.008-0.71,2.567
		c0,0.56-0.092,1.271-0.188,1.5c-0.095,0.228-0.119,1.729-0.047,2.11c0.071,0.381,0.118,1.146,0.095,1.424
		c-0.015,0.162-0.053,0.453-0.081,0.67H8.283c-0.128-0.202-0.245-0.424-0.21-0.544c0.071-0.253,0.283-1.779,0.237-2.72
		c-0.049-0.94,0.119-1.55-0.166-1.702C7.862,8.797,7.529,8.52,7.458,8.238C7.387,7.96,7.245,7.654,6.987,7.477
		C6.728,7.299,6.822,7.045,6.704,6.893c-0.119-0.154-0.26,0.075-0.426,0.075c-0.164,0-0.378-0.229-0.542-0.153
		c-0.165,0.077-0.52,1.144-0.779,1.067C4.696,7.808,4.082,7.63,3.729,7.935C3.375,8.238,2.995,8.366,2.972,8.696
		c-0.025,0.33,0.048,0.89-0.166,1.119c-0.212,0.23-0.235,0.305-0.259,0.687c-0.024,0.38-0.119,1.423-0.329,1.398
		c-0.214-0.026-0.474-0.026-0.474,0.254c0,0.277-0.047,0.762-0.188,0.99c-0.143,0.229-0.188,0.381-0.237,0.61
		c-0.01,0.049-0.02,0.104-0.026,0.162H0v1.978h19.502v-1.978h-1.314V13.917z M4.82,9.927c-0.085,0.602-0.085,0.781-0.167,1.052
		c-0.084,0.27,0.056,0.871-0.14,0.479c-0.196-0.39-0.363-0.539-0.389-0.811c-0.017-0.156-0.118-0.479-0.219-0.57
		C3.853,9.509,3.941,8.316,3.941,8.316C3.987,8.063,4.06,7.961,4.224,7.961c0.166,0,0.614,0.102,0.707,0.278
		c0,0,0.261,0.382,0.285,0.458c0.011,0.042,0.039,0.252,0.063,0.486c-0.044-0.041-0.07-0.044-0.07,0.056
		C5.209,9.449,4.902,9.329,4.82,9.927z M6.368,13.917H5.142c0.028-0.261,0.084-0.659,0.191-0.825
		C5.5,12.838,5.664,12.509,5.9,12.609c0.237,0.103,0.188,0.457,0.356,0.638c0.164,0.177,0.164,0.202,0.164,0.407
		C6.42,13.753,6.392,13.841,6.368,13.917z M7.625,9.382C7.582,9.476,7.528,9.646,7.457,9.803c-0.07-0.116-0.155-0.23-0.186-0.385
		C7.214,9.149,7.214,8.999,7.242,8.817c0.029-0.179-0.5-0.449-0.529-0.658C6.696,8.034,6.612,7.91,6.505,7.849
		c0.011-0.188,0.032-0.348,0.032-0.348s0.426,0.357,0.568,0.508c0.14,0.154,0.093,0.357,0.212,0.56
		C7.435,8.773,7.554,8.875,7.67,8.977C7.789,9.078,7.694,9.232,7.625,9.382z M17.185,13.83c-0.115-0.135-0.287-0.319-0.398-0.52
		c-0.159-0.287-0.412-0.602-0.508-1.205c-0.094-0.604-0.317-1.143-0.475-1.172c-0.16-0.033-0.097,0.729-0.189,1.172
		c-0.018,0.076-0.047,0.147-0.077,0.219c-0.063-0.301-0.396-0.86-0.416-1.264c-0.022-0.459-0.731-1.806-0.851-2.161
		c-0.117-0.357,0-0.331,0.047-0.61c0.049-0.281-0.023-0.712,0-1.041c0.023-0.333,0.023-0.637-0.023-0.942
		C14.248,6,14.318,5.365,14.438,5.315c0.117-0.051,0.094-0.738,0.094-0.738c0.283,0.078,0.236,1.196,0.261,1.399
		c0.022,0.203,0.117,0.228,0.283,0.458c0.165,0.227,0.26-0.153,0.401-0.23c0.142-0.076,0.166,0.331,0.236,0.865
		c0.068,0.533,0,1.575,0.021,2.033c0.025,0.458,0.308,0.814,0.379,0.814c0.07,0,0.096-0.56,0.096-0.789
		c0-0.228,0.141-0.685,0.141-0.685s0.143,0.329,0.166,0.635c0.023,0.304,0.637,1.905,0.707,2.007
		c0.071,0.104,0.144,0.304,0.166,0.458c0.023,0.153,0.521,2.286,0.521,2.286h-0.725C17.185,13.828,17.185,13.83,17.185,13.83z"/>
</g>
<g>
</g>
<g>
</g>
<g>
</g>
<g>
</g>
<g>
</g>
<g>
</g>
<g>
</g>
<g>
</g>
<g>
</g>
<g>
</g>
<g>
</g>
<g>
</g>
<g>
</g>
<g>
</g>
<g>
</g>
</svg>
