<?xml version="1.0" encoding="iso-8859-1"?>
<!-- Generator: Adobe Illustrator 16.0.0, SVG Export Plug-In . SVG Version: 6.00 Build 0)  -->
<!DOCTYPE svg PUBLIC "-//W3C//DTD SVG 1.1//EN" "http://www.w3.org/Graphics/SVG/1.1/DTD/svg11.dtd">
<svg version="1.1" id="Capa_1" xmlns="http://www.w3.org/2000/svg" xmlns:xlink="http://www.w3.org/1999/xlink" x="0px" y="0px"
	 width="157.037px" height="157.037px" viewBox="0 0 157.037 157.037" style="enable-background:new 0 0 157.037 157.037;"
	 xml:space="preserve">
<g>
	<path d="M150.387,144.862V0h-6.372l-27.298,20.915c0,0-3.635,4.553-3.635,11.836v2.254c-8.877-3.665-20.574-5.903-33.427-5.903
		c-13.961,0-26.593,2.653-35.7,6.885V32.75c0-7.283-3.635-11.836-3.635-11.836L13.016,0H6.658v144.862H2.763v12.175h151.51v-12.175
		H150.387z M95.465,85.036c0.252,5.458-6.484,12.418-7.774,14.519c-1.303,2.056,4.14,10.872,6.725,16.298
		c2.593,5.446,1.302,10.628,1.302,10.628s3.367,3.65,4.141,8.312c0.77,4.645,0.513,9.598,0.513,9.598l0.368,0.488H85.683
		l-0.124-1.547l-0.657-9.461c0,0,1.947-1.271,1.823-2.561c-0.137-1.318-3.763-4.416-3.763-4.416l-1.143-9.843
		c0,0,3.88-1.562,4.4-5.197c0.521-3.603-4.652-9.831-4.652-9.831v-5.181h1.947v-1.303h-9.973v1.303h1.94v5.181
		c0,0-5.182,6.229-4.657,9.831c0.511,3.635,4.396,5.197,4.396,5.197l-1.16,9.814c0,0-3.626,3.094-3.761,4.412
		c-0.134,1.274,1.821,2.561,1.821,2.561l-0.667,9.478l-0.112,1.547H52.197c0.164-1.102,0.417-2.713,0.793-4.921
		c0.77-4.661,3.879-9.582,6.478-12.68c2.579-3.114-0.529-6.224,0.773-11.67c1.296-5.409,8.035-10.607,9.587-15.284
		c1.549-4.648-2.082-15.533-5.708-19.4c-3.626-3.903-11.91-9.333-13.723-16.831c-1.812-7.53,9.58-14.525,12.17-15.813
		c2.593-1.302,5.171,0.786,4.915,2.833c-0.26,2.09-7.514,3.376-9.844,7.514c-2.334,4.154,1.292,10.614,4.669,11.932
		c3.37,1.289,10.104-0.793,10.104-0.793s-5.182-1.284-6.727-2.573c-1.557-1.302-1.296-3.893-0.785-6.486
		c0.525-2.575,4.149-3.879,8.029-2.33c3.895,1.561,8.553,11.389,8.553,11.389s4.4-2.07,7.25-3.619
		c2.837-1.561,4.925-6.466,3.635-9.327c-1.303-2.861-8.035-2.331-10.624-2.331c-2.604,0-2.344-2.314-2.088-4.665
		c0.269-2.33,5.707-1.545,9.839-0.256c4.155,1.288,11.922,4.665,11.922,7.498c0,2.863-1.03,8.832-3.896,13.236
		C94.676,74.69,95.204,79.611,95.465,85.036z M80.137,101.226l-1.545-0.353v-0.028l-0.072,0.016l-0.078-0.016v0.028l-1.549,0.353
		v-3.631h3.236L80.137,101.226L80.137,101.226z M81.267,104.203c0,0,3.896,5.426,2.821,6.989c-1.074,1.551-3.503-0.185-4.18-1.64
		c-0.682-1.471-0.385-3.021-0.101-3.694C80.104,105.169,80.781,103.418,81.267,104.203z M77.231,105.858
		c0.282,0.673,0.583,2.224-0.101,3.694c-0.675,1.455-3.107,3.19-4.186,1.64c-1.058-1.547,2.825-6.989,2.825-6.989
		C76.257,103.418,76.942,105.169,77.231,105.858z"/>
</g>
<g>
</g>
<g>
</g>
<g>
</g>
<g>
</g>
<g>
</g>
<g>
</g>
<g>
</g>
<g>
</g>
<g>
</g>
<g>
</g>
<g>
</g>
<g>
</g>
<g>
</g>
<g>
</g>
<g>
</g>
</svg>
