<?xml version="1.0" encoding="iso-8859-1"?>
<!-- Generator: Adobe Illustrator 19.0.0, SVG Export Plug-In . SVG Version: 6.00 Build 0)  -->
<svg version="1.1" id="Capa_1" xmlns="http://www.w3.org/2000/svg" xmlns:xlink="http://www.w3.org/1999/xlink" x="0px" y="0px"
	 viewBox="0 0 511.999 511.999" style="enable-background:new 0 0 511.999 511.999;" xml:space="preserve">
<g>
	<g>
		<path d="M406,482h-45v-61h15c8.284,0,15-6.716,15-15V286c0-0.046-0.006-0.09-0.007-0.135c-0.052-5.825-3.433-10.855-8.285-13.281
			c-6.418-3.209-10.249-9.408-10.249-16.584c0-7.175,3.831-13.375,10.249-16.583c0.066-0.033,0.127-0.073,0.193-0.107
			c4.807-2.496,8.042-7.491,8.092-13.174c0-0.046,0.007-0.09,0.007-0.135v-41.834c0-35.673-8.875-71.255-25.664-102.898
			C348.468,49.477,323.91,22.246,294.32,2.52c-4.604-3.07-10.521-3.354-15.398-0.744C274.045,4.386,271,9.468,271,15
			c0,17.739,0,443.975,0,467h-30c0-2.327,0-192.701,0-196c0-7.254,0-264.21,0-271c0-5.532-3.045-10.615-7.922-13.225
			c-4.877-2.61-10.795-2.324-15.398,0.744c-29.59,19.727-54.147,46.958-71.015,78.749C129.875,112.912,121,148.493,121,184.167V226
			c0,0.046,0.006,0.09,0.007,0.135c0.051,5.747,3.347,10.711,8.092,13.174c0.066,0.034,0.127,0.074,0.193,0.107
			c6.417,3.209,10.249,9.408,10.249,16.583s-3.832,13.375-10.25,16.584c-0.066,0.033-0.127,0.073-0.193,0.107
			c-4.882,2.542-8.042,7.57-8.092,13.174c0,0.045-0.007,0.089-0.007,0.135v120c0,8.284,6.716,15,15,15h15v61h-45
			c-8.284,0-15,6.716-15,15s6.716,15,15,15c10.768,0,288.568,0,300,0c8.284,0,15-6.716,15-15S414.284,482,406,482z M211,482h-30v-61
			h30V482z M211,391h-60v-90h60C211,312.415,211,378.049,211,391z M211,271h-43.802c1.532-4.757,2.343-9.805,2.343-15
			s-0.81-10.243-2.342-15H211V271z M211,211h-60v-26.833c0-53.23,22.001-103.096,60-138.302V211z M301,45.864
			c37.999,35.206,60,85.073,60,138.302V211h-60V45.864z M301,240.8h43.801c-1.532,4.757-2.342,10.004-2.342,15.2
			c0,5.195,0.811,10.243,2.342,15H301V240.8z M301,301h60v90c-6.569,0-52.366,0-60,0V301z M331,482h-30v-61h30V482z"/>
	</g>
</g>
<g>
</g>
<g>
</g>
<g>
</g>
<g>
</g>
<g>
</g>
<g>
</g>
<g>
</g>
<g>
</g>
<g>
</g>
<g>
</g>
<g>
</g>
<g>
</g>
<g>
</g>
<g>
</g>
<g>
</g>
</svg>
