<?xml version="1.0" encoding="iso-8859-1"?>
<!-- Generator: Adobe Illustrator 16.0.0, SVG Export Plug-In . SVG Version: 6.00 Build 0)  -->
<!DOCTYPE svg PUBLIC "-//W3C//DTD SVG 1.1//EN" "http://www.w3.org/Graphics/SVG/1.1/DTD/svg11.dtd">
<svg version="1.1" id="Capa_1" xmlns="http://www.w3.org/2000/svg" xmlns:xlink="http://www.w3.org/1999/xlink" x="0px" y="0px"
	 width="70.1px" height="70.1px" viewBox="0 0 70.1 70.1" style="enable-background:new 0 0 70.1 70.1;" xml:space="preserve">
<g>
	<path d="M65.181,46.329l-14.763,0.66c0,0-2.602-1.215-2.513-2.319l19.503-20.434l-1.204-0.368h-1.581L48.84,36.686l3.159-19.13
		l-0.559-1.114l-1.02,0.652L44.569,34.91L48.467,0L46.52,0.739l-9.373,42.154l-1.398-18.938h-1.395l-1.391,18.938L23.581,0.739
		L21.636,0l3.897,34.906l-5.849-17.823l-1.023-0.652l-0.558,1.117l3.161,19.13L5.478,23.864H3.902l-1.21,0.368l19.501,20.431
		c0.091,1.111-2.509,2.32-2.509,2.32l-14.76-0.654l-1.581,1.026l16.435,3.895l-0.833,4.271l-2.139,1.211l-2.642,10.212h-3.766V70.1
		h49.306v-3.155H55.94l-2.642-10.212l-2.136-1.211l-0.834-4.271l16.433-3.895L65.181,46.329z M32.034,49.211l0.458,17.733h-9.1
		L32.034,49.211z M37.608,66.944l0.462-17.733l8.638,17.733H37.608z"/>
</g>
<g>
</g>
<g>
</g>
<g>
</g>
<g>
</g>
<g>
</g>
<g>
</g>
<g>
</g>
<g>
</g>
<g>
</g>
<g>
</g>
<g>
</g>
<g>
</g>
<g>
</g>
<g>
</g>
<g>
</g>
</svg>
