<?xml version="1.0" encoding="iso-8859-1"?>
<!-- Generator: Adobe Illustrator 18.1.1, SVG Export Plug-In . SVG Version: 6.00 Build 0)  -->
<svg version="1.1" id="Capa_1" xmlns="http://www.w3.org/2000/svg" xmlns:xlink="http://www.w3.org/1999/xlink" x="0px" y="0px"
	 viewBox="0 0 19.937 19.937" style="enable-background:new 0 0 19.937 19.937;" xml:space="preserve">
<g>
	<path style="fill:#030104;" d="M13.287,18.247c0.007-0.054,0-0.111-0.021-0.164c-0.061-0.152-0.271-0.377-0.452-0.65
		c-0.181-0.271-0.255-0.572-0.255-0.572l0.014-0.135c0,0-0.104-1.328-0.256-1.871c-0.148-0.543-0.393-1.705-0.438-2.158
		c-0.043-0.438-0.091-2.316-0.16-2.902c0.14-0.01,0.365-0.037,0.447-0.099c0.118-0.09,0.271-0.303,0.271-0.303
		s0.031-0.103,0.031-0.3c0-0.195,0-0.527,0-0.527s0.094-0.725,0.197-1.133c0.104-0.407,0.104-0.784,0.043-1.102
		c-0.057-0.317-0.135-0.468-0.135-0.468s0.016-0.526-0.061-0.813c-0.073-0.288-0.166-0.829-0.18-1.055
		c-0.015-0.228-0.195-0.679-0.241-0.785c-0.045-0.105-0.15-0.15-0.15-0.15l0.015-0.121c0,0-0.284-0.135-0.512-0.149
		c-0.228-0.016-0.603-0.09-0.603-0.09s-0.047-0.229-0.166-0.337c-0.123-0.103-0.198-0.226-0.107-0.269
		c0.092-0.045,0.212-0.15,0.212-0.15s0.165-0.288,0.075-0.756c-0.093-0.467-0.195-0.935-0.543-1.069
		C9.963-0.018,9.603-0.018,9.437,0.027c-0.166,0.046-0.378,0.33-0.378,0.47c0,0.135-0.075,0.209-0.015,0.391
		c0.061,0.18,0,0.482,0.031,0.68c0.029,0.195,0.12,0.257,0.179,0.377c0.063,0.12,0.168,0.193,0.168,0.193S9.437,2.35,9.407,2.396
		c-0.03,0.045-0.197,0.06-0.197,0.06L9.075,2.652c0,0-0.378,0.029-0.648,0.029c-0.272,0-0.331,0.062-0.331,0.062L8.065,2.848
		c0,0-0.047-0.092-0.242,0.135C7.627,3.211,7.402,3.647,7.251,4.164C7.1,4.676,6.993,5.051,6.858,5.324
		c-0.135,0.27-0.225,0.647-0.212,1.084C6.66,6.845,6.828,7.464,6.902,7.841c0.076,0.377,0.303,0.754,0.334,1.041
		c0.029,0.287,0.106,0.424,0.193,0.453c0.068,0.022,0.396,0.078,0.572,0.086C7.957,9.63,7.921,9.825,7.899,9.982
		c-0.091,0.649-0.241,2.006-0.272,2.29c-0.028,0.289-0.12,0.621-0.27,0.998c-0.152,0.379-0.243,1.131-0.287,1.479
		c-0.046,0.346-0.121,1.102-0.168,1.418c-0.044,0.313-0.105,0.737-0.105,0.737l0.061,0.166c0,0-0.122,0.425-0.164,0.771
		c-0.033,0.236-0.008,0.346,0.057,0.406H5.427v1.69h9.082v-1.69H13.287z M11.821,8.186c-0.03,0.185-0.016,0.256-0.016,0.256
		s-0.147,0.301-0.236,0.522c-0.103-0.498-0.217-1.039-0.246-1.275c-0.046-0.379,0-1.403,0-1.403l0.104-0.088l0.092-0.875
		c0,0,0.211,0.797,0.211,0.963c0,0.168-0.09,0.727-0.016,1.118C11.79,7.796,11.85,8.009,11.821,8.186z M10.923,2.784l0.91,0.19
		L11.79,3.096l-0.9-0.121L10.923,2.784z M9.321,0.26c0,0,0.156-0.178,0.378-0.158c0.223,0.023,0.512,0.08,0.623,0.135
		c0.113,0.058,0.179,0.203,0.179,0.203s-0.324-0.18-0.58-0.204C9.665,0.216,9.321,0.26,9.321,0.26z M9.121,2.741
		c0,0-0.024,0.11-0.092,0.133C8.964,2.896,8.274,2.909,8.274,2.909L8.207,2.773L9.121,2.741z M7.974,8.309
		C7.806,8.262,7.598,8.066,7.569,7.841C7.536,7.611,7.641,6.86,7.582,6.602C7.521,6.346,7.462,6.241,7.535,6.12
		c0.076-0.119,0.408-0.875,0.483-1.056C8.096,4.882,8.14,4.761,8.14,4.761s0.151,0.604,0.181,0.756
		C8.35,5.669,8.365,5.76,8.365,5.76l-0.03,0.148l0.106,0.438c0,0,0.091,1.086-0.015,1.404C8.385,7.88,8.301,8.173,8.213,8.514
		C8.149,8.427,8.073,8.335,7.974,8.309z M7.921,18.247c0.03-0.021,0.057-0.052,0.069-0.088c0.044-0.166-0.092-0.892-0.092-0.998
		c0-0.104,0.092-0.136,0.092-0.136s0.389-1.989,0.542-2.67c0.148-0.678,0.466-1.629,0.589-2.25c0.12-0.617,0.527-2.411,0.527-2.411
		h0.18c0,0,0.407,1.978,0.529,2.521c0.118,0.541,0.376,1.463,0.376,1.93c0,0.472,0.318,1.191,0.395,1.674
		c0.071,0.484,0.375,1.193,0.375,1.193l0.12,0.029c0,0-0.044,0.256,0.015,0.557c0.062,0.303,0.121,0.484,0.121,0.59
		c0,0.019,0.002,0.039,0.006,0.06L7.921,18.247L7.921,18.247z"/>
</g>
<g>
</g>
<g>
</g>
<g>
</g>
<g>
</g>
<g>
</g>
<g>
</g>
<g>
</g>
<g>
</g>
<g>
</g>
<g>
</g>
<g>
</g>
<g>
</g>
<g>
</g>
<g>
</g>
<g>
</g>
</svg>
