<?xml version="1.0" encoding="iso-8859-1"?>
<!-- Generator: Adobe Illustrator 18.1.1, SVG Export Plug-In . SVG Version: 6.00 Build 0)  -->
<svg version="1.1" id="Capa_1" xmlns="http://www.w3.org/2000/svg" xmlns:xlink="http://www.w3.org/1999/xlink" x="0px" y="0px"
	 viewBox="0 0 19.938 19.938" style="enable-background:new 0 0 19.938 19.938;" xml:space="preserve">
<g>
	<path d="M7.162,15.76C6.466,15.746,6.18,16.358,6.1,16.58h2.078C8.137,16.426,7.916,15.773,7.162,15.76z M8.197,5.678
		C7.399,5.762,7.439,7.02,7.439,7.02l-0.352,4.435h1.857c0,0,0.238-4.074,0.238-4.664S8.947,5.598,8.197,5.678z M8.585,11.25H7.854
		c0.031-0.551,0.233-4.146,0.247-4.543c0.021-0.429,0.137-0.691,0.389-0.67c0.253,0.025,0.314,0.301,0.344,0.51
		C8.86,6.742,8.62,10.676,8.585,11.25z M17.149,19.326c-0.268-0.343-0.497-0.382-0.609-0.841c-0.114-0.457-0.191-0.569-0.418-0.569
		c-0.23,0-0.611-0.609-0.611-0.609l-0.419-2.213l0.191-0.076v-0.914l-0.688-0.19l-0.038-0.533l-0.456-0.189l-1.03-10.405L13.3,2.479
		L13.231,1.16l-0.122-0.355l-0.878-0.348L11.43,0.57l-0.077-0.341L10.439,0L9.18,0.162v0.371L8.394,0.695L8.052,0.412L6.806,0.578
		L6.742,1.182L6.436,1.219L6.359,2.248l0.345,0.647L5.561,12.77l-0.536,0.306l-0.074,0.573l-0.497,0.035L4.188,13.99v0.801
		l0.189,0.229l-0.38,2.401H3.006l-0.382,2.517h14.655C17.28,19.938,17.415,19.668,17.149,19.326z M6.831,1.439l3.595-0.535v0.742
		L6.767,2.117L6.831,1.439z M5.574,13.275l0.534-0.325L7.251,2.773l3.157-0.375l0.156,10.336l0.018,0.711l-5.036,0.082L5.574,13.275
		z M4.669,14.092l0.192-0.164l5.42-0.104l-0.017,0.788l-5.626,0.046L4.669,14.092z M4.799,15.225l5.45-0.018l0.016,2.082H4.499
		L4.799,15.225z M10.975,18.549c0,0-0.299,0.395-0.395,0.41c-0.095,0.016-0.536,0.36-0.536,0.36H7.177l0.095-1.229H6.673
		l-0.126,1.23l-3.345,0.015l0.199-1.467l7.586-0.023L10.975,18.549z"/>
</g>
<g>
</g>
<g>
</g>
<g>
</g>
<g>
</g>
<g>
</g>
<g>
</g>
<g>
</g>
<g>
</g>
<g>
</g>
<g>
</g>
<g>
</g>
<g>
</g>
<g>
</g>
<g>
</g>
<g>
</g>
</svg>
