<?xml version="1.0" encoding="iso-8859-1"?>
<!-- Generator: Adobe Illustrator 21.0.0, SVG Export Plug-In . SVG Version: 6.00 Build 0)  -->
<svg version="1.1" id="Capa_1" xmlns="http://www.w3.org/2000/svg" xmlns:xlink="http://www.w3.org/1999/xlink" x="0px" y="0px"
	 viewBox="0 0 594.864 594.864" style="enable-background:new 0 0 594.864 594.864;" xml:space="preserve">
<g>
	<g>
		<g id="filled_outline_19_">
			<path style="fill:#C3C9D1;" d="M327.185,475.854H267.68l9.57-352.924c0.218-8.955-3.243-17.604-9.57-23.941l0,0V79.155h59.505
				V98.99l0,0c-6.327,6.337-9.789,14.985-9.57,23.941L327.185,475.854z"/>
			<path style="fill:#C3C9D1;" d="M287.515,79.155L287.515,79.155c-15.065-10.036-19.141-30.387-9.104-45.452
				c0.526-0.793,1.091-1.557,1.686-2.301l17.336-21.67l17.336,21.67c11.306,14.132,9.015,34.761-5.117,46.067
				c-0.744,0.595-1.507,1.15-2.301,1.686H287.515z"/>
			<path style="fill:#C3C9D1;" d="M356.937,545.277h-119.01c-12.922-19.379-31.409-34.384-53.039-43.032l-16.384-6.555v-19.835
				h257.855v19.835l-16.384,6.555C388.346,510.893,369.85,525.898,356.937,545.277z"/>
			<rect x="267.68" y="79.155" style="fill:#D0D7DF;" width="59.505" height="19.835"/>
			<path style="fill:#B8BEC4;" d="M302.143,545.277h54.794c12.922-19.379,31.409-34.384,53.039-43.032l16.384-6.555v-19.835h-36.278
				C358.147,495.471,328.633,518.777,302.143,545.277z"/>
			<rect x="99.082" y="545.277" style="fill:#B8BEC4;" width="396.699" height="39.67"/>
			<rect x="198.257" y="545.277" style="fill:#C3C9D1;" width="39.67" height="39.67"/>
			<rect x="99.082" y="545.277" style="fill:#C3C9D1;" width="39.67" height="39.67"/>
			<rect x="356.937" y="545.277" style="fill:#C3C9D1;" width="39.67" height="39.67"/>
			<rect x="456.112" y="545.277" style="fill:#C3C9D1;" width="39.67" height="39.67"/>
			<rect x="59.412" y="575.029" style="fill:#D0D7DF;" width="476.039" height="19.835"/>
			<rect x="79.247" y="535.359" style="fill:#D0D7DF;" width="436.369" height="19.835"/>
			<polygon style="fill:#B8BEC4;" points="268.215,456.019 267.68,475.854 327.185,475.854 326.649,456.019 			"/>
			<path d="M505.699,555.194h9.917v-19.835H378.022c10.096-10.344,22.225-18.486,35.634-23.901l16.384-6.555
				c3.769-1.507,6.238-5.157,6.238-9.213v-19.835c0-5.474-4.443-9.917-9.917-9.917h-89.515l-9.313-343.244
				c-0.139-6.238,2.271-12.268,6.665-16.691c1.864-1.855,2.906-4.384,2.906-7.012V79.155c-0.03-5.167-4.046-9.441-9.203-9.779
				c1.646-3.461,2.807-7.131,3.461-10.909c1.825-11.822-1.388-23.871-8.846-33.224L305.178,3.534
				c-3.709-4.274-10.185-4.741-14.47-1.022c-0.367,0.317-0.704,0.664-1.022,1.022l-17.336,21.67
				c-7.458,9.352-10.671,21.402-8.846,33.224c0.655,3.779,1.815,7.448,3.461,10.909c-5.177,0.337-9.203,4.631-9.203,9.818V98.99
				c0,2.628,1.041,5.157,2.906,7.012c4.393,4.413,6.803,10.433,6.665,16.661l-9.313,343.274h-89.515
				c-5.474,0-9.917,4.443-9.917,9.917v19.835c0,4.056,2.469,7.706,6.238,9.213l16.384,6.555
				c13.408,5.415,25.538,13.557,35.634,23.901H79.247v19.835h9.917v19.835H59.412v19.835h476.039v-19.835h-29.752V555.194z
				 M446.194,555.194v19.835h-39.67v-19.835H446.194z M247.845,555.194h99.175v19.835h-99.175
				C247.845,575.029,247.845,555.194,247.845,555.194z M287.842,37.601l9.59-12l9.59,11.99c7.696,9.62,6.387,23.614-2.975,31.637
				h-13.24C281.445,61.214,280.126,47.221,287.842,37.601L287.842,37.601z M277.597,95.202v-6.129h39.67v6.129
				c-6.417,7.904-9.808,17.822-9.57,27.997l9.303,342.738h-39.134l9.303-342.768C287.396,113.013,284.004,103.096,277.597,95.202z
				 M178.422,488.975v-3.203h238.02v3.203l-10.146,4.056c-21.799,8.688-40.701,23.356-54.526,42.328H243.094
				c-13.825-18.972-32.738-33.65-54.546-42.328L178.422,488.975z M188.34,555.194v19.835h-39.67v-19.835H188.34z M109,575.029
				v-19.835h19.835v19.835H109z M208.175,575.029v-19.835h19.835v19.835H208.175z M366.854,575.029v-19.835h19.835v19.835H366.854z
				 M466.029,575.029v-19.835h19.835v19.835H466.029z"/>
		</g>
	</g>
</g>
<g>
</g>
<g>
</g>
<g>
</g>
<g>
</g>
<g>
</g>
<g>
</g>
<g>
</g>
<g>
</g>
<g>
</g>
<g>
</g>
<g>
</g>
<g>
</g>
<g>
</g>
<g>
</g>
<g>
</g>
</svg>
