<?xml version="1.0" encoding="iso-8859-1"?>
<!-- Generator: Adobe Illustrator 18.1.1, SVG Export Plug-In . SVG Version: 6.00 Build 0)  -->
<svg version="1.1" id="Capa_1" xmlns="http://www.w3.org/2000/svg" xmlns:xlink="http://www.w3.org/1999/xlink" x="0px" y="0px"
	 viewBox="0 0 19.502 19.502" style="enable-background:new 0 0 19.502 19.502;" xml:space="preserve">
<g>
	<path d="M12.844,14.257c-0.957-0.516-2.01-0.816-2.474-0.934c-0.302-0.025-1.23-0.133-2.709-0.568
		c-2.619-0.771-2.503-3.361-2.503-3.68c0-1.19,0.148-4.127,1.515-5.78C7.818,1.907,8.995,1.11,9.684,0.719v1.635
		C8.973,2.683,7.578,3.5,7.06,5.047c-0.65,1.955-0.713,3.994-0.604,5.391c0.099,0.52,0.287,1.08,0.644,1.51
		c0.696,0.84,2.311,1.119,3.028,1.203V0c0,0-1.854,0.664-3.679,2.954C4.618,5.252,4.726,9.625,4.726,9.625v9.877h10.051
		c0-2.689,0-3.354,0-3.354S14.123,14.944,12.844,14.257z"/>
</g>
<g>
</g>
<g>
</g>
<g>
</g>
<g>
</g>
<g>
</g>
<g>
</g>
<g>
</g>
<g>
</g>
<g>
</g>
<g>
</g>
<g>
</g>
<g>
</g>
<g>
</g>
<g>
</g>
<g>
</g>
</svg>
