<?xml version="1.0" encoding="iso-8859-1"?>
<!-- Generator: Adobe Illustrator 16.0.0, SVG Export Plug-In . SVG Version: 6.00 Build 0)  -->
<!DOCTYPE svg PUBLIC "-//W3C//DTD SVG 1.1//EN" "http://www.w3.org/Graphics/SVG/1.1/DTD/svg11.dtd">
<svg version="1.1" id="Capa_1" xmlns="http://www.w3.org/2000/svg" xmlns:xlink="http://www.w3.org/1999/xlink" x="0px" y="0px"
	 width="70.1px" height="70.1px" viewBox="0 0 70.1 70.1" style="enable-background:new 0 0 70.1 70.1;" xml:space="preserve">
<g>
	<path d="M67.792,23.39c-3.771-2.05-18.154-6.125-37.298-5.411c-20.36,0.763-30.113,4.452-29.899,7.95
		c0.106,1.824,3.758,5.523,7.226,8.641H0v2.275h10.429c1.118,0.955,2.096,1.752,2.736,2.272H0v1.958h16.394
		c1.191,0.496,2.76,0.951,4.542,1.009c3.98,0.124,6.921,1.212,7.544,2.656c0.529,1.211,0.318,6.684,0.234,7.464h12.291
		c-0.116-1.167-0.288-7.104,0.787-8.07c1.369-1.204,9.328-0.845,11.437-2.05C55.333,40.88,69.58,27.855,69.58,27.855
		S71.561,25.439,67.792,23.39z M56.711,37.174c-1.334-0.428-4.209-1.085-9.264-1.479c-15.328-1.232-27.456,0.236-30.505,0.722
		c-1.625,0.257-2.88,0.582-3.735,0.828l-6.346-6.009c1.889-1.051,7.19-3.104,20.567-3.819c18.224-0.976,29.201,1.704,32.815,2.97
		c1.313,0.462,2.184,0.924,2.744,1.287L56.711,37.174z"/>
</g>
<g>
</g>
<g>
</g>
<g>
</g>
<g>
</g>
<g>
</g>
<g>
</g>
<g>
</g>
<g>
</g>
<g>
</g>
<g>
</g>
<g>
</g>
<g>
</g>
<g>
</g>
<g>
</g>
<g>
</g>
</svg>
