<?xml version="1.0"?>
<svg xmlns="http://www.w3.org/2000/svg" viewBox="0 0 64 64" width="512" height="512"><g id="outline"><path d="M46,56H44V53a1,1,0,0,0-1-1H39.956L38,8.955h-.008a1,1,0,0,0-.222-.6l-5-6a1.037,1.037,0,0,0-1.538,0l-5,6a1,1,0,0,0-.222.6H26L24.044,52H21a1,1,0,0,0-1,1v3H18a1,1,0,0,0-1,1v4a1,1,0,0,0,1,1H46a1,1,0,0,0,1-1V57A1,1,0,0,0,46,56ZM26.774,36l.5-11H29V23H27.365l.591-13H31V41.883l-4.471-.5L26.683,38H29V36ZM33,43.9l4.562-.508.093,2.042L33,45.9ZM36.226,14H35v2h1.317l.545,12H35v2h1.953l.518,11.386-4.471.5V10h3.044ZM26.438,43.388,31,43.9v1.987l-4.652-.518ZM33,47.905l4.745-.475L37.953,52H33ZM32,4.562,34.865,8h-5.73ZM26.257,47.368,31,47.9V52H26.047ZM22,54H42v2H22Zm23,6H19V58H45Z"/></g></svg>
