<?xml version="1.0"?>
<svg xmlns="http://www.w3.org/2000/svg" viewBox="0 0 64 64" width="512" height="512"><g id="flat"><polygon points="32 9 32 53 39 53 37 9 32 9" style="fill:#ad6327"/><polygon points="32 9 32 53 25 53 27 9 32 9" style="fill:#d3843d"/><rect x="18" y="57" width="28" height="4" style="fill:#8b3123"/><rect x="21" y="53" width="22" height="4" style="fill:#9e5920"/><polygon points="27 9 32 3 37 9 27 9" style="fill:#f1c056"/><polygon points="25.487 42.276 25.307 46.256 32 47 32 43 25.487 42.276" style="fill:#ad6327"/><polygon points="38.697 46.33 38.513 42.276 32 43 32 47 38.697 46.33" style="fill:#d3843d"/><rect x="26" y="23" width="3" height="2" style="fill:#f1c056"/><rect x="35" y="28" width="3" height="2" style="fill:#f1c056"/><rect x="26" y="36" width="3" height="2" style="fill:#f1c056"/><rect x="35" y="14" width="3" height="2" style="fill:#f1c056"/></g></svg>
