<?xml version="1.0" encoding="iso-8859-1"?>
<!-- Generator: Adobe Illustrator 16.0.0, SVG Export Plug-In . SVG Version: 6.00 Build 0)  -->
<!DOCTYPE svg PUBLIC "-//W3C//DTD SVG 1.1//EN" "http://www.w3.org/Graphics/SVG/1.1/DTD/svg11.dtd">
<svg version="1.1" id="Capa_1" xmlns="http://www.w3.org/2000/svg" xmlns:xlink="http://www.w3.org/1999/xlink" x="0px" y="0px"
	 width="70.099px" height="70.099px" viewBox="0 0 70.099 70.099" style="enable-background:new 0 0 70.099 70.099;"
	 xml:space="preserve">
<g>
	<path d="M69.23,43.041c0.075-2.643-0.26-9.854-5.913-13.87c-9.527-6.781-24.99-7.871-24.99-7.871s11.482,7.296,12.711,11.186
		c0.739,2.347,0.855,6.065,0.818,8.684c-0.198-0.034-0.394-0.072-0.603-0.106c-0.021-1.652-0.321-6.03-2.687-9.363
		c-2.957-4.18-11.839-9.169-11.839-9.169s0.585,8.677,0.585,10.47c0,1.574,0.158,5.855,0.207,6.961
		c-0.308-0.007-0.624-0.007-0.929-0.021l-1.374-4.704l-1.66,4.697c-0.284,0.007-0.565,0.021-0.852,0.021
		c0.046-1.116,0.207-5.39,0.207-6.958c0-1.802,0.582-10.47,0.582-10.47s-8.887,4.983-11.849,9.167
		c-2.318,3.277-2.646,7.586-2.673,9.301c-0.207,0.027-0.407,0.065-0.602,0.096c-0.026-2.594,0.09-6.278,0.823-8.604
		c1.227-3.893,12.71-11.189,12.71-11.189s-15.455,1.09-24.988,7.871c-5.647,4.02-5.989,11.231-5.912,13.87H0v5.767h70.099v-5.767
		H69.23V43.041z M52.489,31.987c-1.52-4.408-8.24-8.309-8.24-8.309s13.729,5.135,16.111,9.536c2.382,4.413,2.307,9.539,2.307,9.539
		h-5.503c-0.739-0.444-1.95-0.862-3.545-1.238C53.66,39.454,53.59,35.204,52.489,31.987z M9.875,33.21
		c2.383-4.397,16.106-9.532,16.106-9.532s-6.718,3.901-8.235,8.309c-1.09,3.169-1.174,7.337-1.128,9.438
		c-1.809,0.383-3.176,0.835-3.978,1.32H7.566C7.566,42.746,7.493,37.62,9.875,33.21z"/>
</g>
<g>
</g>
<g>
</g>
<g>
</g>
<g>
</g>
<g>
</g>
<g>
</g>
<g>
</g>
<g>
</g>
<g>
</g>
<g>
</g>
<g>
</g>
<g>
</g>
<g>
</g>
<g>
</g>
<g>
</g>
</svg>
