<?xml version="1.0" encoding="iso-8859-1"?>
<!-- Generator: Adobe Illustrator 18.1.1, SVG Export Plug-In . SVG Version: 6.00 Build 0)  -->
<svg version="1.1" id="Capa_1" xmlns="http://www.w3.org/2000/svg" xmlns:xlink="http://www.w3.org/1999/xlink" x="0px" y="0px"
	 viewBox="0 0 19.503 19.503" style="enable-background:new 0 0 19.503 19.503;" xml:space="preserve">
<g>
	<path style="fill:#030104;" d="M17.428,17.706c0.294-0.164,0.351-0.502,0.163-0.82c-0.301-0.51-1.285-0.52-1.285-0.52
		s-3.357-2.365-4.764-6.684c-1.409-4.313,0.179-7.459,0.179-7.459c-0.13-0.213-0.233-0.221-0.302-0.184
		c0.006-0.051,0.01-0.103,0.01-0.154c0-0.919-0.749-1.667-1.668-1.667c-0.921,0-1.668,0.748-1.668,1.668
		c0,0.058,0.004,0.111,0.01,0.166C8.034,2.004,7.925,1.993,7.78,2.225c0,0,1.588,3.146,0.18,7.459
		c-1.407,4.318-4.765,6.685-4.765,6.685s-0.984,0.01-1.284,0.52c-0.188,0.318-0.132,0.656,0.164,0.82H0v1.576h19.503v-1.576h-2.075
		V17.706z M11.03,2.965l-0.446,1.236c0,0,0.053-0.431,0.11-0.935C10.818,3.184,10.932,3.081,11.03,2.965z M10.494,0.622
		c0.189,0,0.344,0.147,0.344,0.328c0,0.182-0.153,0.328-0.344,0.328c-0.193,0-0.348-0.146-0.348-0.328
		C10.146,0.77,10.3,0.622,10.494,0.622z M9.761,3.555c0.126,0,0.252-0.016,0.373-0.045c-0.18,1.312-0.338,2.992-0.338,4.049
		c0,0.132,0.003,0.269,0.005,0.408H9.7c0.004-0.141,0.006-0.276,0.006-0.408c0-1.059-0.157-2.741-0.34-4.053
		C9.492,3.538,9.626,3.555,9.761,3.555z M8.458,2.928c0.099,0.123,0.218,0.232,0.35,0.324c0.058,0.51,0.113,0.949,0.113,0.949
		L8.458,2.928z M6.282,16.188c0,0-0.75,0.213-0.867,0.898c-0.055,0.309-0.004,0.502,0.115,0.621H3.107
		c0.979-0.348,2.608-1.713,3.653-3.227c1.141-1.648,1.798-3.477,1.798-3.477S7.81,13.732,7.24,14.781
		C6.672,15.828,6.282,16.188,6.282,16.188z M6.582,17.706c0.464-0.316,1.125-1.141,1.798-2.867c0.82-2.104,1.182-4.328,1.289-6.115
		h0.165c0.107,1.787,0.468,4.011,1.289,6.115c0.672,1.729,1.33,2.551,1.797,2.867H6.582z M13.974,17.706
		c0.117-0.119,0.17-0.312,0.115-0.621c-0.121-0.688-0.87-0.898-0.87-0.898s-0.39-0.357-0.957-1.406
		c-0.57-1.049-1.319-3.775-1.319-3.775s0.66,1.828,1.799,3.477c1.047,1.514,2.676,2.879,3.652,3.227h-2.42
		C13.974,17.71,13.974,17.706,13.974,17.706z"/>
</g>
<g>
</g>
<g>
</g>
<g>
</g>
<g>
</g>
<g>
</g>
<g>
</g>
<g>
</g>
<g>
</g>
<g>
</g>
<g>
</g>
<g>
</g>
<g>
</g>
<g>
</g>
<g>
</g>
<g>
</g>
</svg>
