<?xml version="1.0" encoding="iso-8859-1"?>
<!-- Generator: Adobe Illustrator 18.1.1, SVG Export Plug-In . SVG Version: 6.00 Build 0)  -->
<svg version="1.1" id="Capa_1" xmlns="http://www.w3.org/2000/svg" xmlns:xlink="http://www.w3.org/1999/xlink" x="0px" y="0px"
	 viewBox="0 0 19.959 19.959" style="enable-background:new 0 0 19.959 19.959;" xml:space="preserve">
<g>
	<path d="M3.052,19.741c-0.053,0-0.264,0.043-0.296,0.054c-0.021,0.009-0.101,0.095-0.167,0.164h16.075
		c-0.028-0.075-0.05-0.157-0.063-0.218c-0.021-0.102-0.095-0.233-0.199-0.233c-0.106,0-0.084-0.044-0.203-0.143
		c-0.116-0.099-0.359-0.441-0.477-0.583c-0.115-0.145-0.189-0.09-0.316-0.145c-0.127-0.054-0.201,0.031-0.245,0.055
		c-0.044,0.024-0.22,0.189-0.275,0.201c-0.053,0.01-0.169,0.1-0.188,0.143c-0.021,0.045-0.18,0.122-0.254,0.111
		c-0.074-0.013-0.36,0.063-0.36,0.063s-0.322,0.031-0.554,0.052c0.047-0.062,0.199-0.27,0.211-0.375
		c0.016-0.129,0.058-0.312,0.058-0.312s0.155-0.592,0.183-0.732c0.028-0.142,0.099-0.408,0.099-0.408s0.099-0.043,0.128-0.199
		c0.027-0.154-0.043-0.354-0.043-0.354s0.168-0.479,0.254-0.593c0.086-0.113,0.24-0.279,0.296-0.463
		c0.056-0.187,0.113-0.341,0.028-0.468c-0.084-0.127-0.113-0.252-0.113-0.252s0.129,0.067,0.186,0.039
		c0.057-0.027,0.297-0.225,0.297-0.225l0.295,0.156l0.043-0.141c0,0,0.466-0.326,0.142-0.819c-0.327-0.494-0.705-0.326-0.86-0.214
		c-0.156,0.115-0.354,0.143-0.338,0.185c0.012,0.045,0.041,0.099,0.041,0.099s-0.084,0.057-0.144-0.014
		c-0.054-0.07-0.197-0.127-0.252-0.326c-0.056-0.195-0.168-0.492-0.339-0.646c-0.168-0.157-0.62-0.452-0.846-0.609
		c-0.227-0.155-0.312-0.209-0.467-0.239c-0.156-0.026-0.281-0.099-0.381-0.153c-0.1-0.06-0.254-0.156-0.254-0.156l0.014-0.254
		c0,0,0.281-0.099,0.297-0.155c0.015-0.056-0.141-0.085-0.141-0.085s-0.1-0.396-0.48-0.479c-0.381-0.086-0.649,0.084-0.649,0.084
		s0.028-0.438-0.156-0.761c-0.185-0.327-0.338-0.65-0.338-0.65s0.113-0.027,0.099-0.098c-0.014-0.073-0.113-0.17-0.184-0.253
		c-0.07-0.085-0.016-0.142-0.126-0.16c-0.112-0.01-0.168-0.038-0.168-0.038L11.831,9.05L7.929,0.292c0,0,0.085-0.223-0.099-0.279
		C7.647-0.045,7.633,0.109,7.661,0.194c0.011,0.038,0.046,0.067,0.083,0.089c-0.007,0.116-0.014,0.35,0.02,0.695
		C7.467,1.262,6.277,2.393,5.883,2.662c-0.452,0.311-1.158,0.624-1.412,0.99C4.216,4.018,4.019,4.387,3.539,4.499
		C3.06,4.613,2.751,4.613,2.158,4.865C1.563,5.123,1.311,5.514,1.311,5.514s-0.085,0.708,0.14,1.045
		c0.228,0.338,0.311,1.015,0.311,1.015s0.846-0.945,1.666-0.958c2.175-0.038,1.858-0.674,3.186-1.269
		c1.182-0.528,2.268-0.304,2.451-0.335c0.955,1.992,1.676,2.872,2.188,3.733c-0.111,0.063-0.223,0.143-0.27,0.231
		c-0.033,0-0.045,0.049-0.055,0.106c-0.105,0.21-0.223,0.471-0.28,0.643c-0.026,0.079-0.168,0.322-0.344,0.599
		c-0.147,0.165-0.303,0.344-0.351,0.417c-0.056,0.083-0.117,0.223-0.177,0.333c-0.101,0.127-0.195,0.229-0.261,0.274L9.416,11.12
		c0,0,0.115-0.252,0.073-0.366c-0.043-0.113-0.172-0.043-0.172-0.043s-0.323-0.295-0.677-0.125
		c-0.351,0.168-0.423,0.464-0.323,0.746c0.099,0.282,0.295,0.396,0.295,0.396s0.014,0.223-0.11,0.236l-0.003,0.001
		c-0.079,0.011-0.135,0.019-0.187,0.034c-0.109-0.005-0.203-0.025-0.288-0.04c-0.091,0.031-0.19,0.067-0.297,0.104
		c-0.065,0.127-0.111,0.479-0.155,0.841c-0.067,0.312-0.133,0.61-0.133,0.61s-0.225,0.213-0.324,0.229
		c-0.1,0.014-0.268,0.125-0.381,0.268c-0.113,0.139-0.494,0.424-0.506,0.536C6.212,14.66,6.311,14.743,6.254,14.8
		c-0.056,0.057-0.1,0.113-0.084,0.2c0.014,0.081,0.197,0.167,0.084,0.269c-0.113,0.098-0.409,0.604-0.48,0.774
		c-0.07,0.168-0.381,0.595-0.537,0.649c-0.153,0.056-0.506,0.283-0.607,0.381c-0.098,0.101-0.521,0.619-0.718,0.732
		c-0.197,0.111-0.495,0.465-0.495,0.465s-0.367,0.199-0.409,0.269c-0.043,0.071-0.043,0.071-0.029,0.158
		c0.014,0.084,0.311,0.393,0.368,0.551c0.031,0.086,0.062,0.179,0.111,0.251c-0.06,0.016-0.108,0.033-0.123,0.04
		C3.295,19.563,3.105,19.741,3.052,19.741z M15.441,18.39c0,0-0.119,0.032-0.119,0.064c0,0.033-0.096-0.018-0.096-0.018l-0.166-0.53
		c0,0,0.358-0.195,0.393-0.064L15.441,18.39z M15.441,15.958c0.121-0.012,0.23,0.021,0.23,0.021l-0.034,0.438
		c0,0-0.261-0.208-0.372-0.294c-0.107-0.09-0.283-0.209-0.283-0.209S15.321,15.968,15.441,15.958z M14.539,18.108
		c0.2-0.072,0.289-0.123,0.289-0.123l0.459,1.285c-0.12-0.03-0.522-0.244-0.591-0.336c-0.075-0.099-0.189-0.11-0.275-0.152
		c-0.046-0.025-0.159-0.036-0.251-0.039c-0.011-0.055-0.039-0.113-0.093-0.155c-0.143-0.112-0.213-0.269-0.129-0.297
		C14.032,18.265,14.342,18.181,14.539,18.108z M13.298,16.967c0,0,0.085-0.129,0.1-0.227c0.013-0.099-0.015-0.187-0.015-0.187
		s0.593,0.229,0.817,0.299c0.228,0.068,0.145,0.164,0.145,0.164s-0.326,0.4-0.482,0.457c-0.154,0.058-0.366,0.156-0.366,0.156
		s-0.171,0.028-0.282,0.083c-0.111,0.058-0.256,0.156-0.256,0.156s0.096,0.163,0.205,0.342c-0.014,0.004-0.027,0.006-0.035,0.007
		c-0.096,0.034-0.139,0.178-0.139,0.178s-0.315,0.119-0.357,0.153c-0.042,0.035-0.201,0.134-0.212,0.179
		c-0.01,0.043-0.308,0.109-0.308,0.109s-0.314,0.005-0.519,0.018c0.072-0.138,0.175-0.306,0.308-0.435
		C12.183,18.136,13.298,16.967,13.298,16.967z M8.852,3.808c-0.884-2.051-0.82-2.723-0.82-2.723l3.354,7.589
		c-0.004,0.001-0.007,0.005-0.011,0.006C9.191,5.309,9.374,5.017,8.852,3.808z M10.776,16.296c0,0,1.088,0.557,1.099,0.622
		c0.012,0.065-0.336,0.36-0.425,0.37c-0.086,0.012-0.258,0.346-0.356,0.402s-0.383-0.359-0.383-0.359s0.088-0.107,0.033-0.26
		c-0.054-0.154-0.075-0.653-0.075-0.653S10.614,16.11,10.776,16.296z M3.843,18.63l0.394,0.184c0,0,1.073-1.184,1.469-1.453
		c0.395-0.268,1.58-1.353,1.58-1.353l0.297,0.056c0,0-0.438,0.957-0.608,1.115c-0.167,0.151-0.506,0.336-0.69,0.506
		c-0.183,0.17-0.48,0.592-0.592,0.734c-0.113,0.141-0.325,0.266-0.325,0.266L5.24,18.801l-0.492,0.265c0,0,0.123,0.188,0.247,0.36
		c-0.245,0.019-0.49,0.077-0.671,0.127c-0.105-0.028-0.255-0.062-0.368-0.083c-0.057-0.021-0.177-0.094-0.209-0.316
		C3.701,18.856,3.843,18.63,3.843,18.63z"/>
</g>
<g>
</g>
<g>
</g>
<g>
</g>
<g>
</g>
<g>
</g>
<g>
</g>
<g>
</g>
<g>
</g>
<g>
</g>
<g>
</g>
<g>
</g>
<g>
</g>
<g>
</g>
<g>
</g>
<g>
</g>
</svg>
