<?xml version="1.0" standalone="no"?>
<!DOCTYPE svg PUBLIC "-//W3C//DTD SVG 20010904//EN"
 "http://www.w3.org/TR/2001/REC-SVG-20010904/DTD/svg10.dtd">
<svg version="1.0" xmlns="http://www.w3.org/2000/svg"
 width="754.000000pt" height="1280.000000pt" viewBox="0 0 754.000000 1280.000000"
 preserveAspectRatio="xMidYMid meet">
<metadata>
Created by potrace 1.15, written by Peter Selinger 2001-2017
</metadata>
<g transform="translate(0.000000,1280.000000) scale(0.100000,-0.100000)"
fill="#000000" stroke="none">
<path d="M2921 12735 c-79 -167 -85 -215 -28 -268 l30 -28 17 -502 c10 -276
17 -502 16 -503 -69 -35 -101 -69 -200 -212 l-57 -82 28 -11 c15 -5 48 -32 73
-58 40 -42 84 -66 157 -86 17 -5 21 -76 38 -645 8 -283 18 -551 21 -595 l5
-80 -30 -12 c-29 -11 -31 -14 -31 -65 0 -29 4 -68 9 -86 8 -25 5 -47 -15 -104
-29 -87 -29 -84 -1 -92 12 -3 35 -16 50 -28 l28 -23 16 -480 16 -480 -65 -165
c-37 -91 -80 -209 -96 -263 l-30 -98 44 -29 c24 -15 59 -33 77 -40 17 -6 47
-18 65 -26 l32 -14 0 -124 0 -124 -26 -6 -27 -7 8 -91 c5 -64 3 -93 -5 -98
-11 -7 -13 -45 -40 -680 -6 -140 -15 -356 -20 -480 -5 -124 -14 -334 -20 -467
-12 -288 -27 -640 -40 -958 -5 -126 -14 -340 -20 -475 -6 -135 -15 -348 -20
-475 -5 -126 -14 -340 -20 -475 -23 -535 -30 -719 -40 -942 -5 -128 -14 -350
-20 -493 -5 -143 -13 -292 -16 -332 l-6 -72 -111 -3 -112 -3 -12 -140 c-6 -77
-12 -150 -12 -162 -1 -23 -3 -23 -125 -23 l-123 0 -7 -37 c-3 -21 -6 -57 -6
-80 l0 -43 -1135 0 -1135 0 0 -435 0 -435 3770 0 3770 0 0 435 0 435 -1097 2
-1098 3 -3 78 -3 77 -144 0 -145 0 -1 58 c-1 31 -4 104 -8 162 l-6 105 -121 3
-121 3 -7 167 c-4 92 -11 259 -16 372 -9 202 -20 443 -40 903 -26 595 -45
1008 -60 1357 -5 124 -14 327 -20 452 -5 126 -15 330 -20 455 -6 126 -15 329
-20 453 -5 124 -14 327 -20 453 -5 125 -15 329 -20 455 -6 125 -15 331 -20
457 -6 127 -13 272 -16 323 l-6 92 -189 0 c-214 0 -195 -8 -201 90 l-3 45 85
7 c149 13 265 29 312 43 43 12 148 62 148 69 0 1 -9 28 -20 60 -35 104 -70
283 -110 570 -40 283 -65 420 -115 632 -21 90 -30 113 -46 117 -16 4 -19 14
-19 71 0 58 2 65 18 59 37 -13 73 -59 89 -112 l16 -55 24 29 c32 39 73 125 80
170 6 35 5 35 -21 25 -73 -27 -151 -8 -243 59 -36 26 -43 37 -43 64 0 30 4 34
37 43 31 8 42 18 65 63 26 50 28 61 27 175 0 66 -6 156 -13 198 -12 75 -12 77
10 87 17 7 24 22 29 61 8 60 70 189 94 196 109 34 174 97 315 309 175 261 218
353 240 513 6 41 5 42 -21 42 -39 1 -62 22 -75 66 -5 22 -25 64 -44 95 -32 53
-38 58 -106 83 -40 14 -87 29 -105 32 -26 5 -32 12 -37 39 -4 18 -36 79 -72
134 l-66 101 3 92 c4 90 3 93 -21 105 -15 8 -64 13 -126 13 -90 0 -287 21
-339 36 -80 24 -160 65 -221 114 -91 73 -178 125 -230 139 -43 11 -69 32 -119
94 -32 40 -74 57 -140 57 -53 0 -165 57 -277 140 l-87 65 -1 53 c0 40 6 62 23
85 37 53 30 105 -29 227 l-50 104 -33 -69z m73 -104 c-2 -2 -11 2 -20 10 -13
11 -18 11 -21 2 -5 -15 -33 -18 -33 -3 0 5 8 25 17 45 l17 36 22 -43 c12 -24
20 -45 18 -47z m-8 -26 c8 -13 14 -32 12 -41 -3 -15 -6 -14 -31 7 -20 17 -26
29 -22 42 10 24 22 21 41 -8z m-17 -79 c1 -4 -7 -5 -16 0 -10 4 -28 7 -40 7
-25 -1 -33 32 -10 40 13 4 66 -32 66 -47z m3 -29 c15 0 25 -4 22 -8 -11 -18
-84 -7 -84 13 0 6 7 7 18 2 9 -4 29 -7 44 -7z m185 -1452 c49 -14 148 -37 220
-50 116 -22 149 -32 255 -84 131 -63 193 -81 288 -81 52 0 67 -5 117 -37 63
-40 171 -82 218 -84 17 0 41 -4 55 -8 25 -8 25 -8 -22 -53 l-48 -45 60 -6 c96
-8 107 -20 115 -123 5 -53 3 -121 -4 -173 l-11 -86 -58 -52 c-39 -36 -65 -53
-84 -53 -46 0 -58 10 -58 46 0 19 -4 34 -9 34 -5 0 -43 32 -85 71 -63 59 -75
75 -70 94 3 13 -1 48 -10 78 -14 47 -27 65 -87 121 -39 36 -76 66 -82 66 -18
0 -114 -78 -143 -115 -20 -26 -28 -52 -34 -104 -13 -118 -103 -252 -180 -268
-29 -5 -29 -6 -14 -34 8 -16 28 -39 44 -51 17 -12 30 -28 30 -37 0 -8 7 -22
16 -32 25 -28 1 -57 -81 -95 l-73 -34 -13 -72 c-12 -65 -18 -78 -70 -138 -71
-83 -88 -96 -121 -102 -27 -5 -28 -4 -28 44 0 65 -13 88 -51 88 -16 0 -31 6
-34 13 -4 13 -45 1220 -45 1325 0 34 2 62 5 62 3 0 44 -11 92 -25z m363 -1725
c0 -16 -14 -51 -30 -77 -47 -73 -70 -146 -82 -261 -12 -105 -12 -107 -69 -192
-31 -47 -88 -139 -125 -205 l-69 -120 -6 170 c-4 94 -10 259 -14 368 l-7 197
33 0 c88 0 280 72 328 124 32 34 41 33 41 -4z m-265 -1701 c30 -11 55 -24 55
-28 0 -15 -28 -33 -76 -47 -56 -17 -64 -11 -64 54 0 50 5 51 85 21z m537 -125
c10 -12 38 -30 63 -40 54 -23 56 -37 18 -105 l-28 -49 -92 0 c-92 0 -93 0
-107 29 -20 39 -69 78 -106 86 -22 5 -30 11 -26 22 3 8 6 29 6 46 l0 32 128 0
c118 0 128 -2 144 -21z"/>
</g>
</svg>
