<svg height="512pt" viewBox="-66 0 511 512" width="512pt" xmlns="http://www.w3.org/2000/svg"><path d="m206.5 100c5.519531 0 10-4.480469 10-10s-4.480469-10-10-10-10 4.480469-10 10 4.480469 10 10 10zm0 0"/><path d="m189.960938 207.640625c4.546874 3.113281 10.773437 1.964844 13.898437-2.601563 11.726563-17.125 19.515625-36.183593 23.144531-56.644531 1.226563-6.875 1.742188-13.789062 1.542969-20.554687-.164063-5.519532-4.8125-9.894532-10.296875-9.695313-5.519531.164063-9.859375 4.773438-9.695312 10.292969.160156 5.394531-.253907 10.929688-1.238282 16.453125-3.136718 17.652344-9.847656 34.085937-19.957031 48.851563-3.121094 4.554687-1.957031 10.777343 2.601563 13.898437zm0 0"/><path d="m10.5 40c-3.464844 0-6.683594 1.796875-8.507812 4.742188-1.820313 2.949218-1.9843755 6.628906-.4375 9.730468 27.007812 54 38.945312 80.207032 38.945312 135.527344v80c0 46.265625 24.296875 86.953125 60.796875 110h-30.796875c-5.523438 0-10 4.476562-10 10v40c0 5.523438 4.476562 10 10 10h10v62c0 5.523438 4.476562 10 10 10h200c5.523438 0 10-4.476562 10-10v-62h10c5.523438 0 10-4.476562 10-10v-40c0-5.523438-4.476562-10-10-10h-6.40625c5.410156-3.585938 10.320312-7.613281 14.644531-12.054688 14.847657-15.257812 22.378907-35.003906 21.777344-57.109374-.222656-8.179688 2.785156-15.902344 8.480469-21.753907 5.695312-5.855469 13.335937-9.082031 21.503906-9.082031 3.464844 0 6.683594-1.792969 8.507812-4.742188 1.820313-2.945312 1.988282-6.628906.4375-9.730468l-10.671874-21.347656s0 0 0-.003907c-7.460938-14.910156-22.453126-24.175781-39.121094-24.175781-15.316406 0-29.710938 8.167969-37.558594 21.3125-.027344.042969-.042969.089844-.070312.132812-.027344.046876-.058594.09375-.089844.140626l-15.6875 28.269531c-7.761719-17.5625-25.339844-29.855469-45.746094-29.855469-.714844 0-1.429688.03125-2.140625.0625l8.503906-12.425781c33.027344-48.265625 42.933594-107.113281 16.015625-158.144531-22.609375-42.863282-67.09375-69.492188-116.097656-69.492188h-26.28125c-3.6875 0-7.078125 2.03125-8.816406 5.28125-1.742188 3.253906-1.550782 7.199219.496094 10.269531l6.910156 10.355469c18.488281 27.734375 20.421875 54.496094 16.863281 77.683594-24.011719-37.992188-66.636719-63.589844-115.453125-63.589844zm50 230v-80c0-55.746094-12.34375-86.355469-33.246094-128.777344 40.601563 5.953125 75.832032 33.207032 91.390625 71.785156-10.304687 31.628907-26.148437 60.597657-30.160156 87.027344v.003906c-3.671875 24.183594-2.730469 48.925782 2.726563 71.558594 5.714843 23.710938 16.445312 45.210938 31.035156 62.183594 8.210937 9.554688 17.570312 17.679688 27.9375 24.332031-50.980469-9.5625-89.683594-54.398437-89.683594-108.113281zm40 170h180v52h-180zm200-40v20c-9.683594 0-204.449219 0-220 0v-20zm-70-140c21.003906 0 35.351562 21.050781 28.136719 40.410156-4.320313 11.71875-15.628907 19.589844-28.136719 19.589844-16.542969 0-30-13.457031-30-30 0-16.558594 13.507812-30 30-30zm-93.71875-240c41.5625 0 79.269531 22.539062 98.40625 58.820312 21.929688 41.578126 16.523438 91.703126-14.832031 137.523438-1.339844 1.960938-29.003907 42.382812-30.328125 44.320312-6.230469 8.574219-9.527344 18.707032-9.527344 29.335938 0 27.570312 22.429688 50 50 50 19.484375 0 37.226562-11.476562 45.335938-28.90625 1.769531-1.824219.039062.390625 33.476562-59.601562 4.269531-7.089844 12.050781-11.492188 20.339844-11.492188 9.046875 0 17.183594 5.03125 21.234375 13.125l4.578125 9.15625c-7.804688 2.449219-14.921875 6.8125-20.804688 12.855469-9.488281 9.753906-14.511718 22.625-14.136718 36.246093.457031 16.816407-4.96875 31.15625-16.121094 42.613282-16.082032 16.527344-43.015625 26.003906-73.902344 26.003906-38.820312 0-71.011719-13.574219-93.085938-39.257812-25.027343-29.109376-35.925781-73.113282-29.15625-117.703126 3.519532-23.199218 19.003907-51.945312 29.375-83.75 1.246094-1.726562 1.917969-3.828124 1.890626-5.992187 8.585937-28.480469 15.796874-69.917969-10.492188-113.296875zm0 0"/></svg>