<?xml version="1.0" encoding="iso-8859-1"?>
<!-- Generator: Adobe Illustrator 16.0.0, SVG Export Plug-In . SVG Version: 6.00 Build 0)  -->
<!DOCTYPE svg PUBLIC "-//W3C//DTD SVG 1.1//EN" "http://www.w3.org/Graphics/SVG/1.1/DTD/svg11.dtd">
<svg version="1.1" id="Capa_1" xmlns="http://www.w3.org/2000/svg" xmlns:xlink="http://www.w3.org/1999/xlink" x="0px" y="0px"
	 width="70.106px" height="70.106px" viewBox="0 0 70.106 70.106" style="enable-background:new 0 0 70.106 70.106;"
	 xml:space="preserve">
<g>
	<path d="M22.876,64.46c0.051,0.157,0.051,0.582,0.051,0.582v5.064h24.308v-5.195c0,0-0.391-3.031-0.476-3.914
		c-0.082-0.884-0.079-1.533-0.236-2.006c-0.164-0.476-0.397-0.801-0.397-0.801s-0.164-1.998-0.396-2.32
		c-0.236-0.314-1.681-0.951-1.681-0.951s1.362-1.924,1.52-2.642c0.168-0.719-0.072-2.561-0.644-2.875
		c-0.554-0.328-1.108-0.403-1.108-1.047c0-0.637-0.079-1.041-0.479-1.191c-0.403-0.171-0.962-0.726-1.204-0.89
		c-0.236-0.157-0.801-0.951-0.801-0.951V31.325c0,0,0.801-1.198,0.715-1.766c-0.072-0.555-0.072-1.438,0-1.679
		c0.075-0.238,1.123-2.565,1.037-2.965c-0.072-0.396,1.369,0.323,1.369,0.323s0.164-1.122-0.24-1.437
		c-0.403-0.322-2.084-1.287-1.372-1.602c0.722-0.322,1.772,0.157,1.772,0.157s0-1.034-0.725-1.271
		c-0.719-0.245-0.397-1.207-1.205-1.444c-0.805-0.238-1.766,0.323-2.488,0.091c-0.715-0.245-0.879-0.883-1.427-1.528
		c-0.568-0.633-1.204-1.194-1.204-1.194s1.943-1.069,1.837-1.976c-0.105-0.907-1.276-2.296-1.598-3.571
		c-0.318-1.287-0.113-2.667-0.479-3.249c-0.38-0.589-0.852-1.068-0.852-1.068l0.051-1.069c0,0,1.441,0.806,1.92,1.006
		c0.482,0.218,0.907,1.342,1.071,1.234c0.157-0.103,0.055-1.334-0.273-1.602c-0.315-0.267-1.438-0.849-1.917-1.28
		c-0.485-0.423-0.749-1.17-0.749-1.542c0-0.375-0.103-1.011-0.425-1.233c-0.328-0.209-0.51-0.255-0.746-0.469
		c-0.239-0.221,0.318-0.827,0.318-1.251c0-0.431-0.267-0.939-0.91-0.939c-0.633,0-0.582,1.013-0.633,1.28
		c-0.059,0.265,0.103,0.644-0.479,0.372c-0.589-0.267-1.447,0.799-1.92,0.375c-0.482-0.424-1.231-0.316-1.55-0.164
		c-0.318,0.164-0.589,0.753-0.589,0.753s0.376,1.177,0.746,1.492c0.37,0.317,0.91,0.375,0.91,0.375s0.691-0.91,1.335-0.753
		c0.633,0.164,0.797,1.334,0.533,1.602c-0.27,0.267-0.215,0.803,0,1.17c0.209,0.375-0.058,1.709-0.105,2.354
		c-0.062,0.631-1.17,1.862-0.962,2.39c0.209,0.532,0.743,1.177,0.903,1.545c0.168,0.375,0.062,1.976-0.212,2.404
		c-0.26,0.424-1.01,1.177-1.383,1.177c-0.373,0-0.907-1.177-0.749-1.444c0.161-0.266-0.853,0.582-0.853,1.013
		s-0.27,1.013-0.27,1.013s-0.264,0.057-0.588,0.589c-0.322,0.527-0.212,1.273,0,1.809c0.219,0.532-0.052,1.227-0.37,1.658
		c-0.318,0.424-0.746,0-1.17,0.582c-0.421,0.589-0.904,1.436-1.332,1.602c-0.428,0.154-0.376,1.496-0.161,2.021
		c0.212,0.537,0.903,1.865,0.743,2.24c-0.154,0.375,0.161,1.013,0.329,1.177c0.154,0.157,0.421,0.849,0.472,1.107
		c0.062,0.281,0.643,1.234,0.643,1.234v12.594c0,0-1.386,1.759-1.334,2.231c0.055,0.479,0.109,1.967-0.424,2.189
		c-0.53,0.213-1.865,1.814-2.022,2.505c-0.161,0.698,0.058,1.28,0,1.917c-0.055,0.644-0.219,1.286,0.058,1.656
		c0.26,0.376,1.009,1.225,0.794,1.279c-0.212,0.055-0.903,0.268-0.958,0.527c-0.051,0.273-0.749,2.991-0.691,3.415
		c0.055,0.432-0.37,1.335-0.37,1.76c0,0.431-0.106,0.855-0.058,1.443C23.144,63.07,22.822,64.296,22.876,64.46z"/>
</g>
<g>
</g>
<g>
</g>
<g>
</g>
<g>
</g>
<g>
</g>
<g>
</g>
<g>
</g>
<g>
</g>
<g>
</g>
<g>
</g>
<g>
</g>
<g>
</g>
<g>
</g>
<g>
</g>
<g>
</g>
</svg>
