<svg height="511pt" viewBox="-120 0 511 511.99979" width="511pt" xmlns="http://www.w3.org/2000/svg"><path d="m270.503906 330.996094h-60v-38.785156l21.210938-21.214844h38.789062v-41.671875c-.027344-17.058594-.085937-52.5625-39.570312-62.433594l-40.601563-10.148437c12.753907-13.839844 20.171875-32.304688 20.171875-51.746094v-26.789063c0-38.210937-26.878906-71.398437-62.515625-77.195312-46.058593-7.496094-87.488281 27.671875-87.488281 73.980469v30.003906c0 19.4375 7.417969 37.90625 20.171875 51.746094l-40.601563 10.148437c-38.886718 9.722656-39.347656 43.453125-39.570312 59.664063v44.441406h38.789062l21.210938 21.214844v38.785156h-60v181.003906h270.003906zm-240.003906-90v-14.132813c.324219-22.707031 4.703125-27.832031 16.847656-30.867187l73.152344-18.289063v-28.660156l-7.453125-4.339844c-13.695313-7.96875-22.546875-23.558593-22.546875-39.710937v-30.003906c0-26.871094 23.859375-49.058594 52.667969-44.371094 21.285156 3.460937 37.335937 23.917968 37.335937 47.585937v26.789063c0 16.152344-8.851562 31.742187-22.546875 39.710937l-7.457031 4.339844v28.660156l73.15625 18.289063c12.605469 3.152344 16.804688 8.417968 16.847656 33.351562v11.648438h-21.214844l-30 30h-107.574218l-30-30zm60 60h90.003906v30h-90.003906zm150.003906 181.003906h-210.003906v-121.003906h210.003906zm0 0"/><path d="m90.5 391h90.003906v30h-90.003906zm0 0"/></svg>