<?xml version="1.0" encoding="iso-8859-1"?>
<!-- Generator: Adobe Illustrator 19.0.0, SVG Export Plug-In . SVG Version: 6.00 Build 0)  -->
<svg version="1.1" id="Capa_1" xmlns="http://www.w3.org/2000/svg" xmlns:xlink="http://www.w3.org/1999/xlink" x="0px" y="0px"
	 viewBox="0 0 512 512" style="enable-background:new 0 0 512 512;" xml:space="preserve">
<g>
	<g>
		<path d="M504.501,399.022H484.87v-40.927c0-4.142-3.357-7.499-7.499-7.499H462.92V309.67c0-4.143-3.357-7.499-7.499-7.499h-15.426
			v-40.927c0-4.143-3.358-7.499-7.499-7.499h-21.049v-40.926c0-4.143-3.357-7.499-7.499-7.499h-43.703v-102.02h3.194
			c4.143,0,7.499-3.357,7.499-7.499V57.053c0-4.143-3.357-7.499-7.499-7.499H148.561c-4.142,0-7.499,3.357-7.499,7.499V95.8
			c0,4.143,3.358,7.499,7.499,7.499h3.195V205.32h-43.704c-4.142,0-7.499,3.357-7.499,7.499v40.926H79.505
			c-4.142,0-7.499,3.357-7.499,7.499v40.927H56.579c-4.142,0-7.499,3.357-7.499,7.499v40.926H34.629
			c-4.142,0-7.499,3.358-7.499,7.499v40.927H7.499c-4.142,0-7.499,3.357-7.499,7.499v48.425c0,4.143,3.358,7.499,7.499,7.499
			h497.001c4.143,0,7.499-3.357,7.499-7.499v-48.425C512,402.378,508.642,399.022,504.501,399.022z M156.06,64.552H355.94v23.749
			h-3.194H159.255h-3.195V64.552z M293.484,135.163h-74.968c-4.142,0-7.499,3.357-7.499,7.499v62.658h-44.263V103.299h178.491
			V205.32h-44.263v-62.658C300.983,138.52,297.625,135.163,293.484,135.163z M285.984,150.162v55.159h-59.969v-55.159H285.984z
			 M64.079,317.17h15.425h249.261c4.143,0,7.499-3.358,7.499-7.499c0-4.143-3.357-7.499-7.499-7.499H87.004v-33.428h21.049h44.753
			c4.142,0,7.499-3.357,7.499-7.499c0-4.143-3.358-7.499-7.499-7.499h-37.253v-33.427h43.704h59.261h74.968h59.262h43.703v33.427
			H182.803h-0.001c-4.142,0-7.499,3.357-7.499,7.499c0,4.143,3.358,7.499,7.499,7.499h0.001h221.145h21.049v33.428h-66.232h-0.001
			c-4.143,0-7.499,3.357-7.499,7.499c0,4.142,3.357,7.499,7.499,7.499h0.001h73.732h15.426v33.427H64.079V317.17z M14.999,447.447
			V414.02h19.63h118.177c4.142,0,7.499-3.357,7.499-7.499s-3.358-7.499-7.499-7.499H42.128v-33.428h14.452h398.84h14.451v33.428
			H182.803h-0.001c-4.142,0-7.499,3.357-7.499,7.499s3.358,7.499,7.499,7.499h0.001H477.37h19.631v33.427H14.999z"/>
	</g>
</g>
<g>
</g>
<g>
</g>
<g>
</g>
<g>
</g>
<g>
</g>
<g>
</g>
<g>
</g>
<g>
</g>
<g>
</g>
<g>
</g>
<g>
</g>
<g>
</g>
<g>
</g>
<g>
</g>
<g>
</g>
</svg>
