<?xml version="1.0" encoding="iso-8859-1"?>
<!-- Generator: Adobe Illustrator 18.1.1, SVG Export Plug-In . SVG Version: 6.00 Build 0)  -->
<svg version="1.1" id="Capa_1" xmlns="http://www.w3.org/2000/svg" xmlns:xlink="http://www.w3.org/1999/xlink" x="0px" y="0px"
	 viewBox="0 0 19.938 19.938" style="enable-background:new 0 0 19.938 19.938;" xml:space="preserve">
<g>
	<path style="fill:#030104;" d="M15.141,9.195c-0.154,0-0.269,0-0.401-0.11c-0.136-0.111-0.425-0.076-1.011-0.326
		c-0.584-0.246-1.193-0.213-1.574-0.17c-0.383,0.044-0.764-0.226-1.059-0.452c-0.289-0.223-0.629-0.154-0.897-0.223
		c-0.27-0.068-0.338-0.519-0.338-0.519c0.225,0.092,0.338-0.09,0.472-0.11c0.135-0.023,0.202-0.088,0.359-0.113
		c0.158-0.023,0.115-0.18,0.136-0.248c0.022-0.066-0.044-0.223-0.044-0.223s-0.137-0.18-0.157-0.291
		c-0.023-0.113-0.203-0.273-0.247-0.34c-0.047-0.068-0.227-0.045-0.316-0.246c-0.09-0.203-0.271-0.066-0.451-0.093
		c-0.18-0.02-0.245,0.027-0.426,0.048C9.007,5.8,8.851,6.115,8.827,6.453c-0.022,0.336,0.09,0.674,0.09,0.674L8.94,7.42
		c0,0-0.046-0.068-0.248-0.314C8.491,6.857,8.378,6.521,8.153,6.207C7.93,5.891,7.95,5.758,7.885,5.195
		C7.817,4.631,7.547,4.25,7.503,4.068C7.455,3.89,7.593,3.777,7.593,3.62c0-0.154-0.024-0.244-0.138-0.336
		C7.346,3.193,7.188,2.855,7.188,2.855V2.607c0,0,1.213,0.261,1.089-0.932C8.137,0.299,6.38,0,6.38,0s1.516,0.576,1.516,1.584
		c0,1.014-0.978,0.688-0.978,0.688L6.871,2.834L6.693,2.812c0,0-0.045-0.135,0.044-0.248c0.09-0.112-0.044-0.182-0.044-0.27
		c0-0.092-0.045-0.203-0.135-0.316C6.467,1.865,6.38,1.756,6.38,1.756L6.355,1.439l0.203-0.112L6.535,0.678h-0.45l-0.27,0.291
		l0.047,0.559l0.291-0.02v0.293c0,0-0.182,0.113-0.247,0.27c-0.067,0.156,0,0.404,0.022,0.562C5.952,2.789,6.131,3.08,6.175,3.238
		c0.046,0.156-0.065,1.191-0.021,1.73c0.007,0.057,0.011,0.117,0.018,0.176C6.013,4.99,5.791,4.948,5.478,4.99
		c-0.313,0.047-0.38,0.204-0.427,0.879c-0.046,0.674,0.202,0.92,0.202,0.92S5.232,6.881,5.165,7.307
		C5.098,7.734,4.803,7.689,4.536,7.801c-0.273,0.113-0.179,0.562,0.02,1.283c0.202,0.717,0.809,2.182,0.809,2.182
		s-0.021,0.178-0.067,0.312c-0.044,0.135-0.02,0.428-0.02,0.428s-0.205,0.111-0.34,0.201c-0.136,0.09-0.18,0.271-0.136,0.381
		c0.048,0.113,0.113,0.27,0.092,0.406c-0.022,0.135,0.204,0.336,0.315,0.426c0.113,0.092,0.134,0.227,0.134,0.227
		s-0.046,0.338-0.065,0.494c-0.024,0.156,0.065,0.203,0.111,0.515c0.045,0.317,0.225,2.362,0.225,2.655
		c0,0.291-0.044,0.271-0.18,0.404c-0.067,0.066-0.14,0.166-0.195,0.25C4.922,17.982,4.657,18,4.513,18.016v1.922h9.188V18.73
		l-0.519-0.104c0.002-0.004,0.004-0.008,0.004-0.013c0.025-0.137-0.178-0.067-0.334-0.178c-0.158-0.112-0.316-0.43-0.404-0.877
		c-0.092-0.451-0.225-1.238-0.225-1.238s0.225-0.022,0.402-0.045c0.178-0.021-0.021-0.182-0.021-0.182s0.27-0.178,0.337-0.492
		c0.067-0.313-0.358-0.338-0.358-0.338s0.447-0.246,0.491-0.471c0.048-0.226-0.179-0.16-0.356-0.293
		c-0.182-0.133-0.045-0.314-0.158-0.695c-0.11-0.385-0.719-0.137-0.741-0.406s-0.383-0.518-0.383-0.518s-0.114-0.112-0.07-0.38
		c0.046-0.271-0.471-0.519-0.426-0.877c0.044-0.357-0.607-0.922-0.607-0.922s0-0.158,0-0.539s0.248-0.787,0.248-0.787
		s0.723-0.021,1.012-0.021c0.295,0,0.201,0.09,0.586,0.133c0.381,0.048,0.713,0.009,1.186-0.034c0.47-0.051,0.993,0.123,1.217,0.147
		c0.226,0.023,0.226,0.383,0.292,0.404c0.069,0.021,0.316,0.09,0.493-0.066c0.183-0.155,0.183-0.248,0.204-0.494
		C15.595,9.195,15.302,9.195,15.141,9.195z M6.266,7.127L6.063,6.588l0.263-0.525c0.019,0.105,0.029,0.195,0.029,0.254
		C6.355,6.543,6.266,7.127,6.266,7.127z M7.777,4.91c0.057,0.287,0.021,0.846,0.021,0.846S7.71,5.153,7.678,4.953
		C7.643,4.754,7.421,4.264,7.421,4.264S7.723,4.621,7.777,4.91z M7.188,17.559c-0.091,0.086-0.215,0.229-0.307,0.332
		c-0.109,0.004-0.229,0.012-0.347,0.012v-0.549l0.202-0.987c0,0,0.247,0.428,0.382,0.651C7.255,17.242,7.346,17.4,7.188,17.559z
		 M7.805,9.762c0.166,0.336,0.197,0.523,0.181,0.658c-0.017,0.137,0.034,0.27,0.034,0.27s-0.186-0.032-0.286,0.035
		c-0.103,0.064-0.187,0.185-0.236,0.185c-0.051,0-0.135-0.084-0.237-0.353c-0.104-0.272-0.169-0.645-0.104-1.334
		c0.07-0.69,0.119-1.162,0.172-1.432C7.379,7.52,7.242,7.27,7.227,6.948C7.209,6.629,7.209,5.869,7.209,5.869s0.1,0.371,0.202,0.571
		C7.512,6.645,7.53,6.914,7.715,7.27c0.187,0.354,0.287,0.656,0.338,0.859C8.103,8.33,8.12,8.498,8.12,8.498S7.91,8.573,7.669,9.02
		C7.585,9.178,7.635,9.424,7.805,9.762z M11.143,16.186c0.201,0.135,0.494,0.832,0.539,1.078s-0.045,0.113-0.111,0.316
		c-0.069,0.201,0.246,0.448,0.402,0.631c0.064,0.07,0.11,0.141,0.152,0.197l-1.227-0.25l-0.891,0.068l-0.975-0.164
		c0-0.057-0.014-0.131-0.048-0.213c-0.069-0.156-0.203-0.34-0.382-0.562c-0.179-0.226-0.473-1.033-0.473-1.033
		s0.313,0.065,0.517,0.135c0.204,0.069,0.382-0.022,0.517-0.022c0.136,0,0.336-0.158,0.36-0.271
		c0.021-0.111,0.067-0.178,0.181-0.268c0.111-0.093,0.223,0,0.47,0.135C10.424,16.094,10.94,16.051,11.143,16.186z M13.495,8.893
		c-0.434-0.111-1.033-0.211-1.301-0.2c0,0,0.456-0.123,0.936-0.012s0.721,0.256,0.879,0.291c0.154,0.031,0.479,0.111,0.479,0.111
		S13.929,9.004,13.495,8.893z"/>
</g>
<g>
</g>
<g>
</g>
<g>
</g>
<g>
</g>
<g>
</g>
<g>
</g>
<g>
</g>
<g>
</g>
<g>
</g>
<g>
</g>
<g>
</g>
<g>
</g>
<g>
</g>
<g>
</g>
<g>
</g>
</svg>
